# OBJ generated by ONSHAPE BY PTC INC, 1.204 Units = meters
g Goomba_Track
v 1.38778e-17 -0.0770288 0 
v 1.38778e-17 -0.0770288 0.0001 
v -0.0036419 -0.0810756 0.0001 
v -0.0036419 -0.0810756 0 
v -0.00770219 -0.0847024 0.0001 
v -0.00770219 -0.0847024 0 
v -0.0121327 -0.0878663 0.0001 
v -0.0121327 -0.0878663 0 
v -0.016881 -0.0905297 0.0001 
v -0.016881 -0.0905297 0 
v -0.0218907 -0.0926611 0.0001 
v -0.0218907 -0.0926611 0 
v -0.0271024 -0.0942352 0.0001 
v -0.0271024 -0.0942352 0 
v -0.0324544 -0.0952333 0.0001 
v -0.0324544 -0.0952333 0 
v -0.0378831 -0.0956436 0.0001 
v -0.0378831 -0.0956436 0 
v -0.0433243 -0.0954612 0.0001 
v -0.0433243 -0.0954612 0 
v -0.0487134 -0.0946884 0.0001 
v -0.0487134 -0.0946884 0 
v -0.0539866 -0.0933342 0.0001 
v -0.0539866 -0.0933342 0 
v -0.0590812 -0.0914147 0.0001 
v -0.0590812 -0.0914147 0 
v -0.063937 -0.0889527 0.0001 
v -0.063937 -0.0889527 0 
v -0.0684963 -0.0859773 0.0001 
v -0.0684963 -0.0859773 0 
v -0.072705 -0.0825239 0.0001 
v -0.072705 -0.0825239 0 
v -0.0765134 -0.0786334 0.0001 
v -0.0765134 -0.0786334 0 
v -0.0798762 -0.0743518 0.0001 
v -0.0798762 -0.0743518 0 
v -0.0827535 -0.0697301 0.0001 
v -0.0827535 -0.0697301 0 
v -0.0851113 -0.0648229 0.0001 
v -0.0851113 -0.0648229 0 
v -0.0869216 -0.0596884 0.0001 
v -0.0869216 -0.0596884 0 
v -0.0881629 -0.0543876 0.0001 
v -0.0881629 -0.0543876 0 
v -0.0888205 -0.0489832 0.0001 
v -0.0888205 -0.0489832 0 
v -0.0888867 -0.0435393 0.0001 
v -0.0888867 -0.0435393 0 
v -0.0883606 -0.0381206 0.0001 
v -0.0883606 -0.0381206 0 
v -0.0872484 -0.0327911 0.0001 
v -0.0872484 -0.0327911 0 
v -0.0855635 -0.0276142 0.0001 
v -0.0855635 -0.0276142 0 
v -0.0833256 -0.0226511 0.0001 
v -0.0833256 -0.0226511 0 
v -0.0805614 -0.0179608 0.0001 
v -0.0805614 -0.0179608 0 
v -0.0773037 -0.0135988 0.0001 
v -0.0773037 -0.0135988 0 
v -0.073591 -0.00961689 0.0001 
v -0.073591 -0.00961689 0 
v -0.0694674 -0.00606221 0.0001 
v -0.0694674 -0.00606221 0 
v -0.0649818 -0.00297694 0.0001 
v -0.0649818 -0.00297694 0 
v -0.0601873 -0.000397655 0.0001 
v -0.0601873 -0.000397655 0 
v -0.0551408 0.00164507 0.0001 
v -0.0551408 0.00164507 0 
v -0.0499021 0.00312701 0.0001 
v -0.0499021 0.00312701 0 
v 0.0499021 0.00312701 0 
v 0.0499021 0.00312701 0.0001 
v 0.0551408 0.00164507 0.0001 
v 0.0551408 0.00164507 0 
v 0.0601873 -0.000397655 0.0001 
v 0.0601873 -0.000397655 0 
v 0.0649818 -0.00297694 0.0001 
v 0.0649818 -0.00297694 0 
v 0.0694674 -0.00606221 0.0001 
v 0.0694674 -0.00606221 0 
v 0.073591 -0.00961689 0.0001 
v 0.073591 -0.00961689 0 
v 0.0773037 -0.0135988 0.0001 
v 0.0773037 -0.0135988 0 
v 0.0805614 -0.0179608 0.0001 
v 0.0805614 -0.0179608 0 
v 0.0833256 -0.0226511 0.0001 
v 0.0833256 -0.0226511 0 
v 0.0855635 -0.0276142 0.0001 
v 0.0855635 -0.0276142 0 
v 0.0872484 -0.0327911 0.0001 
v 0.0872484 -0.0327911 0 
v 0.0883606 -0.0381206 0.0001 
v 0.0883606 -0.0381206 0 
v 0.0888867 -0.0435393 0.0001 
v 0.0888867 -0.0435393 0 
v 0.0888205 -0.0489832 0.0001 
v 0.0888205 -0.0489832 0 
v 0.0881629 -0.0543876 0.0001 
v 0.0881629 -0.0543876 0 
v 0.0869216 -0.0596884 0.0001 
v 0.0869216 -0.0596884 0 
v 0.0851113 -0.0648229 0.0001 
v 0.0851113 -0.0648229 0 
v 0.0827535 -0.0697301 0.0001 
v 0.0827535 -0.0697301 0 
v 0.0798762 -0.0743518 0.0001 
v 0.0798762 -0.0743518 0 
v 0.0765134 -0.0786334 0.0001 
v 0.0765134 -0.0786334 0 
v 0.072705 -0.0825239 0.0001 
v 0.072705 -0.0825239 0 
v 0.0684963 -0.0859773 0.0001 
v 0.0684963 -0.0859773 0 
v 0.063937 -0.0889527 0.0001 
v 0.063937 -0.0889527 0 
v 0.0590812 -0.0914147 0.0001 
v 0.0590812 -0.0914147 0 
v 0.0539866 -0.0933342 0.0001 
v 0.0539866 -0.0933342 0 
v 0.0487134 -0.0946884 0.0001 
v 0.0487134 -0.0946884 0 
v 0.0433243 -0.0954612 0.0001 
v 0.0433243 -0.0954612 0 
v 0.0378831 -0.0956436 0.0001 
v 0.0378831 -0.0956436 0 
v 0.0324544 -0.0952333 0.0001 
v 0.0324544 -0.0952333 0 
v 0.0271024 -0.0942352 0.0001 
v 0.0271024 -0.0942352 0 
v 0.0218907 -0.0926611 0.0001 
v 0.0218907 -0.0926611 0 
v 0.016881 -0.0905297 0.0001 
v 0.016881 -0.0905297 0 
v 0.0121327 -0.0878663 0.0001 
v 0.0121327 -0.0878663 0 
v 0.00770219 -0.0847024 0.0001 
v 0.00770219 -0.0847024 0 
v 0.0036419 -0.0810756 0.0001 
v 0.0036419 -0.0810756 0 
v -0.0492766 0.00847443 0.0001 
v -0.0492766 0.00847443 0 
v -0.0480798 0.0137236 0.0001 
v -0.0480798 0.0137236 0 
v -0.0463254 0.0188136 0.0001 
v -0.0463254 0.0188136 0 
v -0.044034 0.0236855 0.0001 
v -0.044034 0.0236855 0 
v -0.041232 0.0282828 0.0001 
v -0.041232 0.0282828 0 
v -0.037952 0.0325522 0.0001 
v -0.037952 0.0325522 0 
v -0.0342319 0.0364441 0.0001 
v -0.0342319 0.0364441 0 
v -0.0301149 0.0399135 0.0001 
v -0.0301149 0.0399135 0 
v -0.0256488 0.0429201 0.0001 
v -0.0256488 0.0429201 0 
v -0.0208853 0.0454291 0.0001 
v -0.0208853 0.0454291 0 
v -0.0158796 0.0474114 0.0001 
v -0.0158796 0.0474114 0 
v -0.0106898 0.0488439 0.0001 
v -0.0106898 0.0488439 0 
v -0.00537607 0.0497101 0.0001 
v -0.00537607 0.0497101 0 
v -7.93894e-17 0.05 0.0001 
v -7.93894e-17 0.05 0 
v 0.00537607 0.0497101 0.0001 
v 0.00537607 0.0497101 0 
v 0.0106898 0.0488439 0.0001 
v 0.0106898 0.0488439 0 
v 0.0158796 0.0474114 0.0001 
v 0.0158796 0.0474114 0 
v 0.0208853 0.0454291 0.0001 
v 0.0208853 0.0454291 0 
v 0.0256488 0.0429201 0.0001 
v 0.0256488 0.0429201 0 
v 0.0301149 0.0399135 0.0001 
v 0.0301149 0.0399135 0 
v 0.0342319 0.0364441 0.0001 
v 0.0342319 0.0364441 0 
v 0.037952 0.0325522 0.0001 
v 0.037952 0.0325522 0 
v 0.041232 0.0282828 0.0001 
v 0.041232 0.0282828 0 
v 0.044034 0.0236855 0.0001 
v 0.044034 0.0236855 0 
v 0.0463254 0.0188136 0.0001 
v 0.0463254 0.0188136 0 
v 0.0480798 0.0137236 0.0001 
v 0.0480798 0.0137236 0 
v 0.0492766 0.00847443 0.0001 
v 0.0492766 0.00847443 0 
v -0.0303624 -0.0898312 0.0001 
v -0.0257051 -0.0886669 0.0001 
v 0.0305355 0.0330543 0.0001 
v 0.0338636 0.0296354 0.0001 
v 0.026864 0.0361016 0.0001 
v 0.0142192 0.0426944 0.0001 
v 0.0186598 0.0409489 0.0001 
v 0.00961881 0.04396 0.0001 
v -0.0226379 0.0388912 0.0001 
v -0.0266284 0.0362757 0.0001 
v -0.0303196 0.0332524 0.0001 
v -0.03367 0.0298552 0.0001 
v -0.0735686 -0.0169271 0.0001 
v -0.0703112 -0.0134007 0.0001 
v -0.0764317 -0.0207803 0.0001 
v -0.080806 -0.0621326 0.0001 
v -0.0788123 -0.0664996 0.0001 
v -0.0211983 -0.0870132 0.0001 
v 0.0228906 0.038743 0.0001 
v 0.00014648 0.0449998 0.0001 
v -0.00461893 0.0447623 0.0001 
v -0.0183928 0.0410695 0.0001 
v -0.0366418 0.0261224 0.0001 
v -0.0788682 -0.0249167 0.0001 
v -0.0763648 -0.0706294 0.0001 
v -0.0399153 -0.0906438 0.0001 
v -0.0351171 -0.0904926 0.0001 
v -0.0168934 -0.0848888 0.0001 
v -0.00908209 -0.0793297 0.0001 
v -0.0128393 -0.0823179 0.0001 
v -0.0056646 -0.0759583 0.0001 
v 0.0430614 0.0130657 0.0001 
v 0.0442028 0.00843292 0.0001 
v 0.041436 0.0175516 0.0001 
v 0.00491024 0.0447313 0.0001 
v -0.0392017 0.0220959 0.0001 
v -0.0413208 0.017821 0.0001 
v -0.0441469 0.00872051 0.0001 
v -0.0448221 0.0039972 0.0001 
v 0.0211741 -0.0870028 0.0001 
v 0.0168743 -0.0848781 0.0001 
v -0.0541393 -0.00330225 0.0001 
v -0.0495411 -0.00192318 0.0001 
v -0.0627662 -0.00748517 0.0001 
v -0.0585645 -0.0051633 0.0001 
v -0.0666967 -0.0102414 0.0001 
v -0.0808501 -0.0292891 0.0001 
v -0.0823549 -0.0338477 0.0001 
v -0.0833656 -0.0385407 0.0001 
v -0.0838706 -0.0433146 0.0001 
v -0.0838641 -0.0481152 0.0001 
v -0.0833463 -0.0528878 0.0001 
v -0.0823231 -0.057578 0.0001 
v -0.0734913 -0.074475 0.0001 
v -0.0702245 -0.0779926 0.0001 
v -0.0666015 -0.0811421 0.0001 
v -0.0626637 -0.0838878 0.0001 
v -0.0584557 -0.0861984 0.0001 
v -0.0494237 -0.0894143 0.0001 
v -0.0447023 -0.090283 0.0001 
v -0.00262571 -0.072242 0.0001 
v 0.0393447 0.0218402 0.0001 
v 0.0368111 0.0258833 0.0001 
v -0.00933241 0.0440217 0.0001 
v -0.013941 0.0427861 0.0001 
v -0.0429755 0.0133458 0.0001 
v 0.0823859 -0.0339621 0.0001 
v 0.0833835 -0.0386534 0.0001 
v 0.0808946 -0.0294036 0.0001 
v 0.00565869 -0.0759518 0.0001 
v 0.012825 -0.0823077 0.0001 
v 0.0256757 -0.0886579 0.0001 
v 0.0303279 -0.0898245 0.0001 
v 0.0446545 -0.0902892 0.0001 
v 0.0398715 -0.0906448 0.0001 
v 0.0493725 -0.0894266 0.0001 
v 0.0665461 -0.0811853 0.0001 
v 0.0626077 -0.0839225 0.0001 
v 0.0701708 -0.0780444 0.0001 
v 0.0787716 -0.0665774 0.0001 
v 0.0763185 -0.0706987 0.0001 
v 0.0807721 -0.0622183 0.0001 
v -0.0540256 -0.0880476 0.0001 
v -6.93889e-18 -0.0682232 0.0001 
v 0.0448472 0.00370532 0.0001 
v 0.0838762 -0.0434242 0.0001 
v 0.0765044 -0.0208902 0.0001 
v 0.0736553 -0.0170319 0.0001 
v 0.0704117 -0.0134988 0.0001 
v 0.0668105 -0.010331 0.0001 
v 0.00262312 -0.0722385 0.0001 
v 0.00907223 -0.079321 0.0001 
v 0.0350778 -0.0904893 0.0001 
v 0.0539718 -0.0880667 0.0001 
v 0.0584004 -0.086225 0.0001 
v 0.0734407 -0.0745356 0.0001 
v 0.0789267 -0.0250297 0.0001 
v 0.0587026 -0.00523056 0.0001 
v 0.0542879 -0.00335591 0.0001 
v 0.0496988 -0.00196176 0.0001 
v 0.0822974 -0.0576711 0.0001 
v 0.08333 -0.0529874 0.0001 
v 0.0838583 -0.0482204 0.0001 
v 0.0628927 -0.00756442 0.0001 
v 0.0449874 -0.00106395 0.0001 
v -0.0448221 -0.00104181 0.0001 
v 0.0704117 -0.0134988 0 
v 0.0668105 -0.010331 0 
v 0.0736553 -0.0170319 0 
v 0.0765044 -0.0208902 0 
v 0.0789267 -0.0250297 0 
v 0.0838583 -0.0482204 0 
v 0.08333 -0.0529874 0 
v -0.0392017 0.0220959 0 
v 0.0628927 -0.00756442 0 
v 0.0823859 -0.0339621 0 
v 0.0833835 -0.0386534 0 
v 0.0838762 -0.0434242 0 
v -0.0303196 0.0332524 0 
v -0.03367 0.0298552 0 
v -0.0266284 0.0362757 0 
v 0.0808946 -0.0294036 0 
v 0.0787716 -0.0665774 0 
v 0.0763185 -0.0706987 0 
v 0.0665461 -0.0811853 0 
v 0.0626077 -0.0839225 0 
v 0.0446545 -0.0902892 0 
v 0.0398715 -0.0906448 0 
v 0.0168743 -0.0848781 0 
v -0.0366418 0.0261224 0 
v -0.0226379 0.0388912 0 
v -0.0183928 0.0410695 0 
v 0.0142192 0.0426944 0 
v 0.0186598 0.0409489 0 
v 0.0305355 0.0330543 0 
v 0.0338636 0.0296354 0 
v -0.0211983 -0.0870132 0 
v -0.0168934 -0.0848888 0 
v -0.0257051 -0.0886669 0 
v -0.0303624 -0.0898312 0 
v -0.0351171 -0.0904926 0 
v 0.0542879 -0.00335591 0 
v 0.0496988 -0.00196176 0 
v 0.0587026 -0.00523056 0 
v 0.0822974 -0.0576711 0 
v 0.0807721 -0.0622183 0 
v 0.0734407 -0.0745356 0 
v 0.0701708 -0.0780444 0 
v 0.0584004 -0.086225 0 
v 0.0539718 -0.0880667 0 
v 0.0350778 -0.0904893 0 
v 0.0256757 -0.0886579 0 
v 0.0211741 -0.0870028 0 
v 0.012825 -0.0823077 0 
v 0.00907223 -0.079321 0 
v -0.013941 0.0427861 0 
v 0.00014648 0.0449998 0 
v -0.00461893 0.0447623 0 
v 0.00491024 0.0447313 0 
v 0.0228906 0.038743 0 
v 0.026864 0.0361016 0 
v 0.0430614 0.0130657 0 
v 0.0442028 0.00843292 0 
v -0.0735686 -0.0169271 0 
v -0.0703112 -0.0134007 0 
v -0.0627662 -0.00748517 0 
v -0.0585645 -0.0051633 0 
v -0.00908209 -0.0793297 0 
v -0.0128393 -0.0823179 0 
v -0.0399153 -0.0906438 0 
v -0.0447023 -0.090283 0 
v -0.0626637 -0.0838878 0 
v -0.0584557 -0.0861984 0 
v -0.0666015 -0.0811421 0 
v 0.0493725 -0.0894266 0 
v 0.0303279 -0.0898245 0 
v 0.00262312 -0.0722385 0 
v 0.00565869 -0.0759518 0 
v -0.00933241 0.0440217 0 
v 0.00961881 0.04396 0 
v 0.0368111 0.0258833 0 
v 0.0393447 0.0218402 0 
v 0.041436 0.0175516 0 
v -0.0823549 -0.0338477 0 
v -0.0833656 -0.0385407 0 
v -0.0808501 -0.0292891 0 
v -0.0764317 -0.0207803 0 
v -0.0666967 -0.0102414 0 
v -0.0541393 -0.00330225 0 
v -0.0495411 -0.00192318 0 
v -0.0056646 -0.0759583 0 
v -0.0494237 -0.0894143 0 
v -0.0540256 -0.0880476 0 
v -0.0702245 -0.0779926 0 
v -0.0734913 -0.074475 0 
v -0.0763648 -0.0706294 0 
v -0.0788123 -0.0664996 0 
v -0.080806 -0.0621326 0 
v -0.0823231 -0.057578 0 
v -6.93889e-18 -0.0682232 0 
v 0.0448472 0.00370532 0 
v -0.0429755 0.0133458 0 
v -0.0441469 0.00872051 0 
v -0.0838706 -0.0433146 0 
v -0.0788682 -0.0249167 0 
v -0.00262571 -0.072242 0 
v 0.0449874 -0.00106395 0 
v -0.0413208 0.017821 0 
v -0.0833463 -0.0528878 0 
v -0.0838641 -0.0481152 0 
v -0.0448221 -0.00104181 0 
v -0.0448221 0.0039972 0 
o mesh0
f 1 2 3
f 4 3 5
f 6 5 7
f 8 7 9
f 10 9 11
f 12 11 13
f 14 13 15
f 16 15 17
f 18 17 19
f 20 19 21
f 22 21 23
f 24 23 25
f 26 25 27
f 28 27 29
f 30 29 31
f 32 31 33
f 34 33 35
f 36 35 37
f 38 37 39
f 40 39 41
f 42 41 43
f 44 43 45
f 46 45 47
f 48 47 49
f 50 49 51
f 52 51 53
f 54 53 55
f 56 55 57
f 58 57 59
f 60 59 61
f 62 61 63
f 64 63 65
f 66 65 67
f 68 67 69
f 70 69 71
f 71 72 70
f 69 70 68
f 67 68 66
f 65 66 64
f 63 64 62
f 61 62 60
f 59 60 58
f 57 58 56
f 55 56 54
f 53 54 52
f 51 52 50
f 49 50 48
f 47 48 46
f 45 46 44
f 43 44 42
f 41 42 40
f 39 40 38
f 37 38 36
f 35 36 34
f 33 34 32
f 31 32 30
f 29 30 28
f 27 28 26
f 25 26 24
f 23 24 22
f 21 22 20
f 19 20 18
f 17 18 16
f 15 16 14
f 13 14 12
f 11 12 10
f 9 10 8
f 7 8 6
f 5 6 4
f 3 4 1
o mesh1
f 73 74 75
f 76 75 77
f 78 77 79
f 80 79 81
f 82 81 83
f 84 83 85
f 86 85 87
f 88 87 89
f 90 89 91
f 92 91 93
f 94 93 95
f 96 95 97
f 98 97 99
f 100 99 101
f 102 101 103
f 104 103 105
f 106 105 107
f 108 107 109
f 110 109 111
f 112 111 113
f 114 113 115
f 116 115 117
f 118 117 119
f 120 119 121
f 122 121 123
f 124 123 125
f 126 125 127
f 128 127 129
f 130 129 131
f 132 131 133
f 134 133 135
f 136 135 137
f 138 137 139
f 140 139 141
f 142 141 2
f 2 1 142
f 141 142 140
f 139 140 138
f 137 138 136
f 135 136 134
f 133 134 132
f 131 132 130
f 129 130 128
f 127 128 126
f 125 126 124
f 123 124 122
f 121 122 120
f 119 120 118
f 117 118 116
f 115 116 114
f 113 114 112
f 111 112 110
f 109 110 108
f 107 108 106
f 105 106 104
f 103 104 102
f 101 102 100
f 99 100 98
f 97 98 96
f 95 96 94
f 93 94 92
f 91 92 90
f 89 90 88
f 87 88 86
f 85 86 84
f 83 84 82
f 81 82 80
f 79 80 78
f 77 78 76
f 75 76 73
o mesh2
f 72 71 143
f 144 143 145
f 146 145 147
f 148 147 149
f 150 149 151
f 152 151 153
f 154 153 155
f 156 155 157
f 158 157 159
f 160 159 161
f 162 161 163
f 164 163 165
f 166 165 167
f 168 167 169
f 170 169 171
f 172 171 173
f 174 173 175
f 176 175 177
f 178 177 179
f 180 179 181
f 182 181 183
f 184 183 185
f 186 185 187
f 188 187 189
f 190 189 191
f 192 191 193
f 194 193 195
f 196 195 74
f 74 73 196
f 195 196 194
f 193 194 192
f 191 192 190
f 189 190 188
f 187 188 186
f 185 186 184
f 183 184 182
f 181 182 180
f 179 180 178
f 177 178 176
f 175 176 174
f 173 174 172
f 171 172 170
f 169 170 168
f 167 168 166
f 165 166 164
f 163 164 162
f 161 162 160
f 159 160 158
f 157 158 156
f 155 156 154
f 153 154 152
f 151 152 150
f 149 150 148
f 147 148 146
f 145 146 144
f 143 144 72
o mesh3
f 15 13 197
f 13 11 198
f 183 199 200
f 181 201 199
f 175 202 203
f 173 204 202
f 161 159 205
f 159 157 206
f 157 155 207
f 155 153 208
f 59 209 210
f 57 211 209
f 41 39 212
f 39 37 213
f 198 197 13
f 11 9 214
f 199 183 181
f 179 215 201
f 177 203 215
f 202 175 173
f 171 169 216
f 169 167 217
f 163 161 218
f 206 205 159
f 208 207 155
f 153 151 219
f 209 59 57
f 55 220 211
f 213 212 39
f 37 35 221
f 19 17 222
f 17 15 223
f 214 198 11
f 9 7 224
f 5 225 226
f 3 227 225
f 193 228 229
f 191 230 228
f 201 181 179
f 203 177 175
f 173 171 231
f 217 216 169
f 205 218 161
f 219 208 153
f 151 149 232
f 149 147 233
f 145 143 234
f 143 71 235
f 135 236 237
f 69 238 239
f 65 240 241
f 63 242 240
f 211 57 55
f 55 53 243
f 53 51 244
f 51 49 245
f 49 47 246
f 47 45 247
f 45 43 248
f 43 41 249
f 221 213 37
f 35 33 250
f 33 31 251
f 31 29 252
f 29 27 253
f 27 25 254
f 23 21 255
f 21 19 256
f 223 222 17
f 224 214 9
f 225 5 3
f 2 257 227
f 228 193 191
f 189 258 230
f 187 259 258
f 185 200 259
f 215 179 177
f 216 231 171
f 167 165 260
f 165 163 261
f 207 206 157
f 233 232 149
f 147 145 262
f 235 234 143
f 93 263 264
f 91 265 263
f 2 141 266
f 139 137 267
f 237 137 135
f 133 268 236
f 131 269 268
f 125 270 271
f 123 272 270
f 115 273 274
f 113 275 273
f 107 276 277
f 105 278 276
f 239 71 69
f 67 241 238
f 240 65 63
f 61 210 242
f 243 220 55
f 245 244 51
f 247 246 47
f 249 248 43
f 250 221 35
f 252 251 31
f 254 253 27
f 25 23 279
f 256 255 21
f 197 223 15
f 226 7 5
f 2 280 257
f 195 229 281
f 230 191 189
f 259 187 185
f 231 204 173
f 261 260 165
f 232 219 151
f 234 262 145
f 95 264 282
f 263 93 91
f 89 87 283
f 87 85 284
f 85 83 285
f 83 81 286
f 266 287 2
f 141 139 288
f 237 267 137
f 268 133 131
f 127 271 289
f 270 125 123
f 121 290 272
f 119 291 290
f 273 115 113
f 111 292 275
f 109 277 292
f 276 107 105
f 238 69 67
f 242 63 61
f 244 243 53
f 248 247 45
f 251 250 33
f 279 254 25
f 222 256 19
f 227 3 2
f 281 74 195
f 258 189 187
f 260 217 167
f 262 233 147
f 264 95 93
f 91 89 293
f 284 283 87
f 286 285 83
f 288 266 141
f 236 135 133
f 129 289 269
f 271 127 125
f 290 121 119
f 117 274 291
f 275 113 111
f 277 109 107
f 241 67 65
f 246 245 49
f 253 252 29
f 226 224 7
f 229 195 193
f 218 261 163
f 293 265 91
f 285 284 85
f 79 77 294
f 77 75 295
f 75 74 296
f 267 288 139
f 289 129 127
f 291 119 117
f 292 111 109
f 103 297 278
f 101 298 297
f 99 299 298
f 97 282 299
f 210 61 59
f 255 279 23
f 200 185 183
f 283 293 89
f 81 79 300
f 295 294 77
f 74 301 296
f 269 131 129
f 274 117 115
f 297 103 101
f 299 99 97
f 212 249 41
f 71 302 235
f 300 286 81
f 296 295 75
f 272 123 121
f 298 101 99
f 281 301 74
f 294 300 79
f 278 105 103
f 282 97 95
f 239 302 71
f 287 280 2
o mesh4
f 84 303 304
f 86 305 303
f 88 306 305
f 90 307 306
f 303 84 86
f 306 88 90
f 98 100 308
f 100 102 309
f 310 144 146
f 82 304 311
f 305 86 88
f 92 94 312
f 94 96 313
f 96 98 314
f 309 308 100
f 146 148 310
f 156 315 316
f 158 317 315
f 304 82 84
f 92 318 307
f 313 312 94
f 308 314 98
f 106 108 319
f 108 110 320
f 114 116 321
f 116 118 322
f 124 126 323
f 126 128 324
f 136 138 325
f 310 72 144
f 152 326 310
f 154 316 326
f 315 156 158
f 160 327 317
f 162 328 327
f 174 176 329
f 176 178 330
f 182 184 331
f 184 186 332
f 10 333 334
f 12 335 333
f 14 336 335
f 16 337 336
f 76 338 339
f 78 340 338
f 80 311 340
f 307 90 92
f 314 313 96
f 102 104 341
f 104 106 342
f 320 319 108
f 110 112 343
f 112 114 344
f 322 321 116
f 118 120 345
f 120 122 346
f 324 323 126
f 128 130 347
f 132 134 348
f 134 136 349
f 138 350 325
f 140 351 350
f 310 150 152
f 316 154 156
f 327 160 162
f 164 352 328
f 170 353 354
f 172 355 353
f 330 329 176
f 178 180 356
f 180 182 357
f 332 331 184
f 192 194 358
f 194 196 359
f 58 60 360
f 60 62 361
f 64 66 362
f 66 68 363
f 4 6 364
f 6 8 365
f 333 10 12
f 336 14 16
f 18 366 337
f 20 367 366
f 28 368 369
f 30 370 368
f 339 73 76
f 340 78 80
f 312 318 92
f 342 341 104
f 343 320 110
f 321 344 114
f 346 345 120
f 122 124 371
f 347 324 128
f 130 132 372
f 349 348 134
f 350 138 140
f 1 373 374
f 326 152 154
f 328 162 164
f 166 375 352
f 168 354 375
f 353 170 172
f 174 376 355
f 356 330 178
f 331 357 182
f 186 188 377
f 188 190 378
f 190 192 379
f 359 358 194
f 52 380 381
f 54 382 380
f 56 58 383
f 361 360 60
f 62 64 384
f 363 362 66
f 68 70 385
f 70 72 386
f 1 4 387
f 365 364 6
f 335 12 14
f 366 18 20
f 22 388 367
f 24 389 388
f 26 369 389
f 368 28 30
f 32 390 370
f 34 391 390
f 36 392 391
f 38 393 392
f 40 394 393
f 42 395 394
f 338 76 78
f 341 309 102
f 344 343 112
f 371 346 122
f 372 347 130
f 325 349 136
f 142 374 351
f 1 396 373
f 317 158 160
f 375 166 168
f 355 172 174
f 357 356 180
f 378 377 188
f 358 379 192
f 196 73 397
f 72 398 399
f 50 381 400
f 380 52 54
f 56 401 382
f 360 383 58
f 362 384 64
f 386 385 70
f 387 402 1
f 8 334 365
f 337 16 18
f 388 22 24
f 369 26 28
f 390 32 34
f 392 36 38
f 394 40 42
f 311 80 82
f 345 322 118
f 348 372 132
f 374 142 1
f 352 164 166
f 329 376 174
f 379 378 190
f 73 403 397
f 72 404 398
f 381 50 52
f 383 401 56
f 385 363 68
f 364 387 4
f 367 20 22
f 370 30 32
f 393 38 40
f 44 405 395
f 46 406 405
f 319 342 106
f 351 140 142
f 354 168 170
f 397 359 196
f 72 310 404
f 382 54 56
f 72 407 386
f 334 8 10
f 391 34 36
f 405 44 46
f 48 400 406
f 323 371 124
f 377 332 186
f 399 408 72
f 384 361 62
f 389 24 26
f 406 46 48
f 148 150 310
f 400 48 50
f 395 42 44
f 408 407 72
f 339 403 73
f 402 396 1
o mesh5
f 373 396 280
f 374 373 287
f 351 374 266
f 350 351 288
f 325 350 267
f 349 325 237
f 348 349 236
f 372 348 268
f 347 372 269
f 324 347 289
f 323 324 271
f 371 323 270
f 346 371 272
f 345 346 290
f 322 345 291
f 321 322 274
f 344 321 273
f 343 344 275
f 320 343 292
f 319 320 277
f 342 319 276
f 341 342 278
f 309 341 297
f 308 309 298
f 314 308 299
f 313 314 282
f 312 313 264
f 318 312 263
f 307 318 265
f 306 307 293
f 305 306 283
f 303 305 284
f 304 303 285
f 311 304 286
f 340 311 300
f 338 340 294
f 339 338 295
f 403 339 296
f 296 301 403
f 295 296 339
f 294 295 338
f 300 294 340
f 286 300 311
f 285 286 304
f 284 285 303
f 283 284 305
f 293 283 306
f 265 293 307
f 263 265 318
f 264 263 312
f 282 264 313
f 299 282 314
f 298 299 308
f 297 298 309
f 278 297 341
f 276 278 342
f 277 276 319
f 292 277 320
f 275 292 343
f 273 275 344
f 274 273 321
f 291 274 322
f 290 291 345
f 272 290 346
f 270 272 371
f 271 270 323
f 289 271 324
f 269 289 347
f 268 269 372
f 236 268 348
f 237 236 349
f 267 237 325
f 288 267 350
f 266 288 351
f 287 266 374
f 280 287 373
o mesh6
f 386 407 302
f 385 386 239
f 363 385 238
f 362 363 241
f 384 362 240
f 361 384 242
f 360 361 210
f 383 360 209
f 401 383 211
f 382 401 220
f 380 382 243
f 381 380 244
f 400 381 245
f 406 400 246
f 405 406 247
f 395 405 248
f 394 395 249
f 393 394 212
f 392 393 213
f 391 392 221
f 390 391 250
f 370 390 251
f 368 370 252
f 369 368 253
f 389 369 254
f 388 389 279
f 367 388 255
f 366 367 256
f 337 366 222
f 336 337 223
f 335 336 197
f 333 335 198
f 334 333 214
f 365 334 224
f 364 365 226
f 387 364 225
f 402 387 227
f 396 402 257
f 257 280 396
f 227 257 402
f 225 227 387
f 226 225 364
f 224 226 365
f 214 224 334
f 198 214 333
f 197 198 335
f 223 197 336
f 222 223 337
f 256 222 366
f 255 256 367
f 279 255 388
f 254 279 389
f 253 254 369
f 252 253 368
f 251 252 370
f 250 251 390
f 221 250 391
f 213 221 392
f 212 213 393
f 249 212 394
f 248 249 395
f 247 248 405
f 246 247 406
f 245 246 400
f 244 245 381
f 243 244 380
f 220 243 382
f 211 220 401
f 209 211 383
f 210 209 360
f 242 210 361
f 240 242 384
f 241 240 362
f 238 241 363
f 239 238 385
f 302 239 386
o mesh7
f 302 407 408
f 408 235 302
o mesh8
f 397 403 301
f 359 397 281
f 358 359 229
f 379 358 228
f 378 379 230
f 377 378 258
f 332 377 259
f 331 332 200
f 357 331 199
f 356 357 201
f 330 356 215
f 329 330 203
f 376 329 202
f 355 376 204
f 353 355 231
f 354 353 216
f 375 354 217
f 352 375 260
f 328 352 261
f 327 328 218
f 317 327 205
f 315 317 206
f 316 315 207
f 326 316 208
f 310 326 219
f 404 310 232
f 398 404 233
f 399 398 262
f 408 399 234
f 234 235 408
f 262 234 399
f 233 262 398
f 232 233 404
f 219 232 310
f 208 219 326
f 207 208 316
f 206 207 315
f 205 206 317
f 218 205 327
f 261 218 328
f 260 261 352
f 217 260 375
f 216 217 354
f 231 216 353
f 204 231 355
f 202 204 376
f 203 202 329
f 215 203 330
f 201 215 356
f 199 201 357
f 200 199 331
f 259 200 332
f 258 259 377
f 230 258 378
f 228 230 379
f 229 228 358
f 281 229 359
f 301 281 397
