# OBJ generated by ONSHAPE BY PTC INC, 1.204 Units = meters
g Medium_Comp_Track
v 0.0527489 -0.0320495 0.0002 
v 0.0527489 -0.0320495 0 
v 0.0469913 -0.0378321 0 
v 0.0469913 -0.0378321 0.0002 
v 0.0421741 -0.0328474 0 
v 0.0421741 -0.0328474 0.0002 
v -0.0212642 -0.00447833 0.0002 
v -0.0212642 -0.00447833 5.42101e-20 
v -0.0203767 -0.00378919 0 
v -0.0224094 -0.00550294 0.0002 
v -0.0224094 -0.00550294 2.71051e-20 
v -0.0232429 -0.0064004 0.0002 
v -0.0232429 -0.0064004 5.42101e-20 
v -0.0238361 -0.00717319 0.0002 
v -0.0238361 -0.00717319 2.71051e-20 
v -0.0242489 -0.00782983 0.0002 
v -0.0242489 -0.00782983 5.42101e-20 
v -0.0245335 -0.00839511 0.0002 
v -0.0245335 -0.00839511 8.13152e-20 
v -0.0247247 -0.00888802 0.0002 
v -0.0247247 -0.00888802 2.71051e-20 
v -0.0248461 -0.00932333 8.13152e-20 
v -0.0249141 -0.00971229 0.0002 
v -0.0249141 -0.00971229 8.13152e-20 
v -0.0249402 -0.0100784 0.0002 
v -0.0249402 -0.0100784 8.13152e-20 
v -0.024929 -0.0104362 0.0002 
v -0.024929 -0.0104362 2.71051e-20 
v -0.0248781 -0.0108056 5.42101e-20 
v -0.0247766 -0.0112138 8.13152e-20 
v -0.0248781 -0.0108056 0.0002 
v -0.0246045 -0.0116803 0.0002 
v -0.0246045 -0.0116803 2.71051e-20 
v -0.0243663 -0.0121656 8.13152e-20 
v -0.0240094 -0.012742 0.0002 
v -0.0240094 -0.012742 8.13152e-20 
v -0.0234809 -0.0134343 0.0002 
v -0.0234809 -0.0134343 8.13152e-20 
v -0.0227046 -0.0142693 0.0002 
v -0.0227046 -0.0142693 2.71051e-20 
v -0.0215445 -0.0152968 0.0002 
v -0.0215445 -0.0152968 2.71051e-20 
v -0.0197948 -0.0165713 0.0002 
v -0.0197948 -0.0165713 2.71051e-20 
v -0.0169489 -0.0182439 0.0002 
v -0.0169489 -0.0182439 5.42101e-20 
v -0.0125153 -0.020302 0.0002 
v -0.0125153 -0.020302 5.42101e-20 
v -0.00598742 -0.022654 0.0002 
v -0.00598742 -0.022654 2.71051e-20 
v 0.00324248 -0.0251966 0.0002 
v 0.00324248 -0.0251966 8.13152e-20 
v 0.0135579 -0.0273939 0.0002 
v 0.0135579 -0.0273939 8.13152e-20 
v 0.0280771 -0.0298298 0.0002 
v 0.0280771 -0.0298298 5.42101e-20 
v 0.0378633 -0.0314014 0.0002 
v 0.0378633 -0.0314014 2.71051e-20 
v 0.0399785 -0.0318971 0.0002 
v 0.0399785 -0.0318971 8.13152e-20 
v 0.0409153 -0.0322233 0.0002 
v 0.0409153 -0.0322233 5.42101e-20 
v -0.0243663 -0.0121656 0.0002 
v -0.0247766 -0.0112138 0.0002 
v -0.0248461 -0.00932333 0.0002 
v -0.0203767 -0.00378919 0.0002 
v -0.0398207 0.0385086 0.0002 
v -0.0398207 0.0385086 -2.98156e-19 
v -0.0579115 0.0384133 0 
v -0.00816406 0.0383249 0.0002 
v -0.00816406 0.0383249 -2.71051e-19 
v 0.01367 0.0377222 0.0002 
v 0.01367 0.0377222 -3.25261e-19 
v 0.029442 0.0367762 0.0002 
v 0.029442 0.0367762 -2.71051e-19 
v 0.0400082 0.0356448 0.0002 
v 0.0400082 0.0356448 -2.98156e-19 
v 0.0471597 0.0344193 0.0002 
v 0.0471597 0.0344193 -2.98156e-19 
v 0.0523887 0.0330587 0.0002 
v 0.0523887 0.0330587 -2.71051e-19 
v 0.0554757 0.0319108 0.0002 
v 0.0554757 0.0319108 -2.98156e-19 
v 0.0572823 0.0310341 0.0002 
v 0.0572823 0.0310341 -2.98156e-19 
v 0.0586541 0.0302113 0.0002 
v 0.0586541 0.0302113 -3.25261e-19 
v 0.0597368 0.0294225 0.0002 
v 0.0597368 0.0294225 -3.25261e-19 
v 0.0606189 0.0286469 0.0002 
v 0.0606189 0.0286469 -3.25261e-19 
v 0.0613426 0.0278802 0.0002 
v 0.0613426 0.0278802 -3.25261e-19 
v 0.0619426 0.0271102 -2.71051e-19 
v 0.0624336 0.0263376 0.0002 
v 0.0624336 0.0263376 -2.71051e-19 
v 0.0628335 0.0255475 0.0002 
v 0.0628335 0.0255475 -2.98156e-19 
v 0.0631181 0.0248214 0.0002 
v 0.0631181 0.0248214 -3.25261e-19 
v 0.0633498 0.0240106 -2.71051e-19 
v 0.0634977 0.0231768 0.0002 
v 0.0634977 0.0231768 -2.71051e-19 
v 0.0635587 0.0223376 0.0002 
v 0.0635587 0.0223376 -2.98156e-19 
v 0.0635299 0.0214702 0.0002 
v 0.0635299 0.0214702 -3.25261e-19 
v 0.0634067 0.0205969 0.0002 
v 0.0634067 0.0205969 -3.25261e-19 
v 0.0632009 0.0197727 -2.71051e-19 
v 0.0629142 0.0189734 0.0002 
v 0.0629142 0.0189734 -2.98156e-19 
v 0.0625359 0.0181744 0.0002 
v 0.0625359 0.0181744 -3.25261e-19 
v 0.0620554 0.0173726 0.0002 
v 0.0620554 0.0173726 -2.98156e-19 
v 0.0614563 0.0165632 0.0002 
v 0.0614563 0.0165632 -2.71051e-19 
v 0.0606259 0.0156532 0.0002 
v 0.0606259 0.0156532 -3.25261e-19 
v 0.0596821 0.0148094 0.0002 
v 0.0596821 0.0148094 -2.71051e-19 
v 0.0584815 0.0139282 0.0002 
v 0.0584815 0.0139282 -2.98156e-19 
v 0.0569338 0.0130051 0.0002 
v 0.0569338 0.0130051 -3.25261e-19 
v 0.0548541 0.012018 0.0002 
v 0.0548541 0.012018 -3.25261e-19 
v 0.0519336 0.0109476 0.0002 
v 0.0519336 0.0109476 -3.25261e-19 
v 0.047192 0.00968802 0.0002 
v 0.047192 0.00968802 -2.98156e-19 
v 0.0400792 0.00841441 0.0002 
v 0.0400792 0.00841441 -2.71051e-19 
v 0.0281369 0.00705336 0.0002 
v 0.0281369 0.00705336 -2.71051e-19 
v 0.00948232 0.00544324 0.0002 
v 0.00948232 0.00544324 -2.98156e-19 
v -0.00105431 0.00422206 0.0002 
v -0.00105431 0.00422206 -3.25261e-19 
v -0.00786363 0.00295799 0.0002 
v -0.00786363 0.00295799 -3.25261e-19 
v -0.011689 0.00186721 0.0002 
v -0.011689 0.00186721 -3.25261e-19 
v -0.0137704 0.00105027 0.0002 
v -0.0137704 0.00105027 -2.71051e-19 
v -0.0154523 0.000200018 0.0002 
v -0.0154523 0.000200018 -2.71051e-19 
v -0.0168586 -0.000697565 0.0002 
v -0.0168586 -0.000697565 -2.71051e-19 
v -0.0183184 -0.00184867 0.0002 
v -0.0183184 -0.00184867 -2.71051e-19 
v 0.0632009 0.0197727 0.0002 
v 0.0633498 0.0240106 0.0002 
v 0.0619426 0.0271102 0.0002 
v -0.0579115 0.0384133 0.0002 
v -0.0712585 -0.0642953 0.0002 
v -0.0712585 -0.0642953 1.35525e-19 
v -0.0691994 -0.0672074 0 
v -0.0726808 -0.0618999 0.0002 
v -0.0726808 -0.0618999 1.0842e-19 
v -0.0738199 -0.0594341 0.0002 
v -0.0738199 -0.0594341 1.35525e-19 
v -0.0746901 -0.0568689 0.0002 
v -0.0746901 -0.0568689 1.6263e-19 
v -0.0752831 -0.0542201 0.0002 
v -0.0752831 -0.0542201 1.0842e-19 
v -0.0755926 -0.0514809 0.0002 
v -0.0755926 -0.0514809 1.35525e-19 
v -0.0756087 -0.0487714 0.0002 
v -0.0756087 -0.0487714 1.0842e-19 
v -0.0753614 -0.046186 0.0002 
v -0.0753614 -0.046186 1.35525e-19 
v -0.0748487 -0.0435665 0.0002 
v -0.0748487 -0.0435665 1.6263e-19 
v -0.0740554 -0.0409197 0.0002 
v -0.0740554 -0.0409197 1.6263e-19 
v -0.0729483 -0.0382181 0.0002 
v -0.0729483 -0.0382181 1.0842e-19 
v -0.0714803 -0.0354401 0.0002 
v -0.0714803 -0.0354401 1.6263e-19 
v -0.0691829 -0.0320049 0.0002 
v -0.0691829 -0.0320049 1.35525e-19 
v -0.0663179 -0.0285197 0.0002 
v -0.0663179 -0.0285197 1.35525e-19 
v -0.0610386 -0.0230204 0.0002 
v -0.0610386 -0.0230204 1.0842e-19 
v -0.0570068 -0.0186948 0.0002 
v -0.0570068 -0.0186948 1.6263e-19 
v -0.0552925 -0.0164609 0.0002 
v -0.0552925 -0.0164609 1.0842e-19 
v -0.0543391 -0.014921 0.0002 
v -0.0543391 -0.014921 1.35525e-19 
v -0.0537747 -0.0137757 0.0002 
v -0.0537747 -0.0137757 1.0842e-19 
v -0.0533966 -0.012784 1.6263e-19 
v -0.0531487 -0.0118769 0.0002 
v -0.0531487 -0.0118769 1.6263e-19 
v -0.0530079 -0.0110407 0.0002 
v -0.0530079 -0.0110407 1.6263e-19 
v -0.0529544 -0.0102228 0.0002 
v -0.0529544 -0.0102228 1.6263e-19 
v -0.0529867 -0.00940686 0.0002 
v -0.0529867 -0.00940686 1.6263e-19 
v -0.053117 -0.00851783 0.0002 
v -0.053117 -0.00851783 1.0842e-19 
v -0.0533367 -0.0076535 0.0002 
v -0.0533367 -0.0076535 1.35525e-19 
v -0.0536913 -0.00667258 0.0002 
v -0.0536913 -0.00667258 1.35525e-19 
v -0.0542345 -0.00553087 0.0002 
v -0.0542345 -0.00553087 1.0842e-19 
v -0.0550653 -0.00414641 0.0002 
v -0.0550653 -0.00414641 1.35525e-19 
v -0.0564775 -0.00223744 0.0002 
v -0.0564775 -0.00223744 1.0842e-19 
v -0.0589911 0.000577806 0.0002 
v -0.0589911 0.000577806 1.0842e-19 
v -0.0641833 0.00576942 0.0002 
v -0.0641833 0.00576942 1.35525e-19 
v -0.0679974 0.00993051 0.0002 
v -0.0679974 0.00993051 1.0842e-19 
v -0.0701557 0.0128061 0.0002 
v -0.0701557 0.0128061 1.0842e-19 
v -0.0715896 0.0151858 0.0002 
v -0.0715896 0.0151858 1.35525e-19 
v -0.0725094 0.0171132 0.0002 
v -0.0725094 0.0171132 1.6263e-19 
v -0.0731824 0.0189471 0.0002 
v -0.0731824 0.0189471 1.0842e-19 
v -0.0736402 0.0206914 0.0002 
v -0.0736402 0.0206914 1.0842e-19 
v -0.0739118 0.0223762 0.0002 
v -0.0739118 0.0223762 1.6263e-19 
v -0.0740117 0.0239901 0.0002 
v -0.0740117 0.0239901 1.35525e-19 
v -0.0739552 0.0255341 0.0002 
v -0.0739552 0.0255341 1.6263e-19 
v -0.073752 0.0270169 0.0002 
v -0.073752 0.0270169 1.35525e-19 
v -0.0734139 0.0284225 0.0002 
v -0.0734139 0.0284225 1.6263e-19 
v -0.0729506 0.0297489 0.0002 
v -0.0729506 0.0297489 1.35525e-19 
v -0.0724058 0.0309251 0.0002 
v -0.0724058 0.0309251 1.6263e-19 
v -0.071717 0.0320954 0.0002 
v -0.071717 0.0320954 1.0842e-19 
v -0.0709209 0.0331789 0.0002 
v -0.0709209 0.0331789 1.6263e-19 
v -0.0700144 0.0341792 0.0002 
v -0.0700144 0.0341792 1.6263e-19 
v -0.0689945 0.0350937 0.0002 
v -0.0689945 0.0350937 1.35525e-19 
v -0.0678548 0.0359172 0.0002 
v -0.0678548 0.0359172 1.6263e-19 
v -0.0668718 0.0364951 0.0002 
v -0.0668718 0.0364951 1.0842e-19 
v -0.0656054 0.0370921 0.0002 
v -0.0656054 0.0370921 1.6263e-19 
v -0.0641973 0.0375944 0.0002 
v -0.0641973 0.0375944 1.0842e-19 
v -0.0625911 0.037996 0.0002 
v -0.0625911 0.037996 1.35525e-19 
v -0.0607028 0.0382787 0.0002 
v -0.0607028 0.0382787 1.6263e-19 
v -0.0533966 -0.012784 0.0002 
v -0.0691994 -0.0672074 0.0002 
v 0.0405093 -0.0642648 0.0002 
v 0.0405093 -0.0642648 2.71051e-20 
v 0.0416976 -0.0637069 0 
v 0.0397862 -0.064522 0.0002 
v 0.0397862 -0.064522 0 
v 0.0387251 -0.0647876 0.0002 
v 0.0387251 -0.0647876 5.42101e-20 
v 0.0374536 -0.0650093 0.0002 
v 0.0374536 -0.0650093 0 
v 0.032554 -0.0655142 0.0002 
v 0.032554 -0.0655142 0 
v 0.0232987 -0.0660293 0.0002 
v 0.0232987 -0.0660293 5.42101e-20 
v -0.000651848 -0.0666938 0.0002 
v -0.000651848 -0.0666938 2.71051e-20 
v -0.0376649 -0.0671177 0.0002 
v -0.0376649 -0.0671177 2.71051e-20 
v 0.0416976 -0.0637069 0.0002 
v 0.0465178 -0.0584849 0 
v 0.0465178 -0.0584849 0.0002 
v 0.0521225 -0.0669769 0 
v 0.0521225 -0.0669769 0.0002 
v 0.0546344 -0.0319129 0.0002 
v 0.0546344 -0.0319129 0 
v 0.0565237 -0.0319787 0.0002 
v 0.0565237 -0.0319787 0 
v 0.0583951 -0.0322462 0.0002 
v 0.0583951 -0.0322462 0 
v 0.0602272 -0.0327124 0.0002 
v 0.0602272 -0.0327124 0 
v 0.0619989 -0.0333718 0.0002 
v 0.0619989 -0.0333718 0 
v 0.0636898 -0.034217 0.0002 
v 0.0636898 -0.034217 0 
v 0.0652807 -0.0352382 0.0002 
v 0.0652807 -0.0352382 0 
v 0.0667533 -0.0364237 0.0002 
v 0.0667533 -0.0364237 0 
v 0.0680906 -0.0377599 0.0002 
v 0.0680906 -0.0377599 0 
v 0.0692773 -0.0392314 0.0002 
v 0.0692773 -0.0392314 0 
v 0.0702998 -0.0408215 0.0002 
v 0.0702998 -0.0408215 0 
v 0.0711464 -0.0425118 0.0002 
v 0.0711464 -0.0425118 0 
v 0.0718073 -0.0442829 0.0002 
v 0.0718073 -0.0442829 0 
v 0.0722749 -0.0461146 0.0002 
v 0.0722749 -0.0461146 0 
v 0.072544 -0.0479858 0.0002 
v 0.072544 -0.0479858 0 
v 0.0726114 -0.049875 0.0002 
v 0.0726114 -0.049875 0 
v 0.0724763 -0.0517606 0.0002 
v 0.0724763 -0.0517606 0 
v 0.0721403 -0.053621 0.0002 
v 0.0721403 -0.053621 0 
v 0.0716073 -0.0554347 0.0002 
v 0.0716073 -0.0554347 0 
v 0.0708833 -0.057181 0.0002 
v 0.0708833 -0.057181 0 
v 0.0699766 -0.0588399 0.0002 
v 0.0699766 -0.0588399 0 
v 0.0688978 -0.0603923 0.0002 
v 0.0688978 -0.0603923 0 
v 0.0676591 -0.0618203 0.0002 
v 0.0676591 -0.0618203 0 
v 0.0662747 -0.0631077 0.0002 
v 0.0662747 -0.0631077 0 
v 0.0647606 -0.0642396 0.0002 
v 0.0647606 -0.0642396 0 
v 0.0631341 -0.0652031 0.0002 
v 0.0631341 -0.0652031 0 
v 0.0614139 -0.0659871 0.0002 
v 0.0614139 -0.0659871 0 
v 0.0596197 -0.0665826 0.0002 
v 0.0596197 -0.0665826 0 
v 0.0577721 -0.0669828 0.0002 
v 0.0577721 -0.0669828 0 
v 0.0558923 -0.067183 0.0002 
v 0.0558923 -0.067183 0 
v 0.0540019 -0.067181 0.0002 
v 0.0540019 -0.067181 0 
v -0.0391843 0.0335098 0.0002 
v -0.0578906 0.0334133 0.0002 
v 0.0289228 0.0121493 0.0002 
v 0.0129339 0.0107753 0.0002 
v 0.00082185 0.00952694 0.0002 
v -0.00776087 0.0333177 0.0002 
v 0.039281 0.013351 0.0002 
v 0.0138852 0.0327084 0.0002 
v 0.046316 0.0146156 0.0002 
v -0.023656 0 0.0002 
v -0.0251848 -0.00125332 0.0002 
v 0.0557874 0.0261122 0.0002 
v 0.0565348 0.0255804 0.0002 
v 0.054756 0.0267149 0.0002 
v -0.0600634 0.0333177 0.0002 
v -0.067994 0.0192786 0.0002 
v -0.067308 0.0177867 0.0002 
v -0.00704022 0.00825844 0.0002 
v -0.0211236 0.00232681 0.0002 
v -0.026501 -0.00254006 0.0002 
v 0.0570887 0.0251046 0.0002 
v 0.0294001 0.0317623 0.0002 
v -0.0684744 0.0206485 0.0002 
v 0.0504799 0.0157322 0.0002 
v 0.0575058 0.0246729 0.0002 
v 0.0397653 0.03063 0.0002 
v -0.0687879 0.0219201 0.0002 
v -0.0613234 0.00999593 0.0002 
v -0.0550804 0.00372232 0.0002 
v 0.0529509 0.0166418 0.0002 
v -0.0275096 -0.00372807 0.0002 
v 0.0578229 0.0242759 0.0002 
v 0.0529602 0.027544 0.0002 
v 0.0510059 0.0282511 0.0002 
v 0.0463646 0.0294759 0.0002 
v -0.0662 0.0158889 0.0002 
v 0.0546007 0.0174281 0.0002 
v 0.0580644 0.0239056 0.0002 
v -0.068961 0.0231079 0.0002 
v -0.0496962 -0.00341889 0.0002 
v -0.0507139 -0.00166507 0.0002 
v -0.0522996 0.000544214 0.0002 
v -0.0644647 0.0135098 0.0002 
v -0.0121424 0.00697815 0.0002 
v -0.0615146 0.0331119 0.0002 
v -0.0626673 0.0328332 0.0002 
v -0.0690131 0.0242207 0.0002 
v 0.0557363 0.0181073 0.0002 
v -0.0682661 0.0279924 0.0002 
v -0.0685762 0.0271474 0.0002 
v -0.0689586 0.0252633 0.0002 
v -0.0489853 -0.00497144 0.0002 
v 0.0565411 0.0186997 0.0002 
v -0.0499368 -0.0172919 0.0002 
v -0.0491756 -0.0157381 0.0002 
v -0.0486311 -0.0142973 0.0002 
v 0.0582471 0.0235552 0.0002 
v -0.0644601 0.0321145 0.0002 
v -0.0650433 0.03178 0.0002 
v -0.0679215 0.0287089 0.0002 
v -0.0688097 0.0262384 0.0002 
v -0.048496 -0.00639074 0.0002 
v 0.0571242 0.0192223 0.0002 
v -0.0153157 0.00583052 0.0002 
v -0.0174867 0.00478955 0.0002 
v -0.0620544 -0.0312589 0.0002 
v -0.0572001 -0.0262486 0.0002 
v -0.0531192 -0.0218407 0.0002 
v -0.0511278 -0.0192288 0.0002 
v -0.0636289 0.0324986 0.0002 
v -0.0657678 0.0312715 0.0002 
v -0.0193488 0.00365963 0.0002 
v 0.0578962 0.0201477 0.0002 
v 0.0581268 0.0205324 0.0002 
v -0.0649796 -0.0347352 0.0002 
v -0.0482599 -0.0129256 0.0002 
v -0.048178 -0.00772457 0.0002 
v 0.0582963 0.0208904 0.0002 
v -0.0480379 -0.0115877 0.0002 
v -0.0683078 -0.0401009 0.0002 
v -0.0692589 -0.0423564 0.0002 
v 0.0583813 0.0232211 0.0002 
v -0.067482 0.0294339 0.0002 
v 0.0143168 -0.0326214 0.0002 
v 0.0284194 -0.0349399 0.0002 
v 0.057586 0.0197288 0.0002 
v 0.0584174 0.021228 0.0002 
v -0.0699387 -0.0445438 0.0002 
v 0.058476 0.0228938 0.0002 
v -0.0669786 0.0301004 0.0002 
v -0.0299167 -0.00950732 0.0002 
v -0.0299378 -0.0103782 0.0002 
v 0.00369321 -0.0304402 0.0002 
v 0.0372365 -0.0363752 0.0002 
v 0.0585027 0.0215717 0.0002 
v -0.0670251 -0.0377315 0.0002 
v -0.0703804 -0.0466855 0.0002 
v 0.0585348 0.0225705 0.0002 
v -0.0298058 -0.00863118 0.0002 
v -0.025866 -0.0181641 0.0002 
v -0.0242162 -0.0195579 0.0002 
v -0.0219169 -0.021152 0.0002 
v -0.00595444 -0.0278982 0.0002 
v -0.0479549 -0.0102512 0.0002 
v -0.0706103 -0.0489275 0.0002 
v 0.0585596 0.022246 0.0002 
v -0.0664096 0.0307117 0.0002 
v -0.0298679 -0.0112571 0.0002 
v -0.0297253 -0.0120488 0.0002 
v -0.0296001 -0.00773623 0.0002 
v -0.0270642 -0.0169351 0.0002 
v -0.0666263 -0.0622074 0.0002 
v 0.00267206 -0.0616284 0.0002 
v -0.0314882 -0.0620749 0.0002 
v -0.0480135 -0.00888784 0.0002 
v -0.0670794 -0.0615502 0.0002 
v -0.0682463 -0.0595901 0.0002 
v -0.0279491 -0.0158309 0.0002 
v -0.0129835 -0.0254996 0.0002 
v 0.022548 -0.0610563 0.0002 
v 0.0585499 0.0219149 0.0002 
v -0.0691697 -0.0575968 0.0002 
v -0.0292881 -0.00680929 0.0002 
v -0.0286081 -0.0148208 0.0002 
v -0.0184446 -0.0230976 0.0002 
v 0.0386332 -0.0367137 0.0002 
v 0.0354924 -0.0602228 0.0002 
v -0.0698695 -0.055543 0.0002 
v -0.0288519 -0.00583706 0.0002 
v -0.0290978 -0.0138806 0.0002 
v 0.0333936 -0.0604301 0.0002 
v 0.0368096 -0.06005 0.0002 
v 0.063664 -0.0587415 0.0002 
v 0.0646059 -0.0577472 0.0002 
v -0.0705998 -0.0512069 0.0002 
v -0.0703487 -0.0534142 0.0002 
v -0.0282807 -0.00483106 0.0002 
v 0.0389984 -0.0368418 0.0002 
v 0.0391467 -0.0369098 0.0002 
v 0.0376304 -0.059908 0.0002 
v 0.0661408 -0.0436338 0.0002 
v 0.0654347 -0.0424602 0.0002 
v 0.063664 -0.0403756 0.0002 
v 0.0626201 -0.039489 0.0002 
v 0.0614866 -0.0387204 0.0002 
v 0.0602765 -0.0380788 0.0002 
v 0.0602765 -0.0610383 0.0002 
v 0.0614866 -0.0603968 0.0002 
v 0.0626201 -0.0596282 0.0002 
v 0.0654347 -0.0566569 0.0002 
v 0.0661408 -0.0554834 0.0002 
v 0.0674476 -0.0516049 0.0002 
v 0.0675957 -0.0502434 0.0002 
v -0.0294554 -0.0129907 0.0002 
v 0.0381392 -0.0597924 0.0002 
v 0.0667159 -0.0448768 0.0002 
v 0.0646059 -0.0413699 0.0002 
v 0.0590042 -0.0375719 0.0002 
v 0.0576845 -0.0372055 0.0002 
v 0.056333 -0.0369839 0.0002 
v 0.0576845 -0.0619116 0.0002 
v 0.0590042 -0.0615452 0.0002 
v 0.0667159 -0.0542404 0.0002 
v 0.0671532 -0.0529425 0.0002 
v 0.0386465 -0.0596233 0.0002 
v 0.0384532 -0.0596989 0.0002 
v 0.0386745 -0.0596103 0.0002 
v 0.0674476 -0.0475122 0.0002 
v 0.0671532 -0.0461747 0.0002 
v 0.0549654 -0.0369098 0.0002 
v 0.056333 -0.0621332 0.0002 
v 0.0549654 -0.0622074 0.0002 
v 0.0675957 -0.0488738 0.0002 
v 0.046938 -0.044972 0.0002 
v 0.0471741 -0.0504023 0.0002 
v -0.0578906 0.0334133 0 
v -0.00776087 0.0333177 2.71051e-20 
v -0.0391843 0.0335098 0 
v 0.00082185 0.00952694 2.71051e-20 
v 0.0129339 0.0107753 0 
v 0.0138852 0.0327084 0 
v 0.0289228 0.0121493 2.71051e-20 
v 0.0294001 0.0317623 0 
v -0.023656 0 0 
v -0.0211236 0.00232681 2.1684e-19 
v 0.039281 0.013351 5.42101e-20 
v -0.067994 0.0192786 0 
v -0.067308 0.0177867 -2.71051e-20 
v -0.0684744 0.0206485 -2.71051e-20 
v -0.0600634 0.0333177 0 
v 0.0557874 0.0261122 -2.71051e-20 
v 0.0565348 0.0255804 0 
v -0.0251848 -0.00125332 0 
v -0.00704022 0.00825844 0 
v -0.0687879 0.0219201 0 
v 0.0397653 0.03063 2.71051e-20 
v 0.0570887 0.0251046 2.71051e-20 
v -0.0193488 0.00365963 0 
v 0.046316 0.0146156 0 
v -0.0550804 0.00372232 2.71051e-20 
v -0.0644647 0.0135098 2.71051e-20 
v -0.0613234 0.00999593 5.42101e-20 
v -0.068961 0.0231079 0 
v 0.0463646 0.0294759 0 
v 0.0575058 0.0246729 2.71051e-20 
v -0.0282807 -0.00483106 0 
v -0.0275096 -0.00372807 2.71051e-20 
v -0.026501 -0.00254006 0 
v 0.0504799 0.0157322 0 
v -0.0522996 0.000544214 0 
v -0.0662 0.0158889 5.42101e-20 
v 0.0510059 0.0282511 0 
v 0.0529602 0.027544 0 
v 0.054756 0.0267149 2.71051e-20 
v 0.0578229 0.0242759 2.71051e-20 
v 0.0529509 0.0166418 2.71051e-20 
v -0.0507139 -0.00166507 2.71051e-20 
v -0.0496962 -0.00341889 0 
v -0.0489853 -0.00497144 -2.71051e-20 
v -0.0690131 0.0242207 0 
v 0.0580644 0.0239056 0 
v -0.0288519 -0.00583706 0 
v -0.0121424 0.00697815 0 
v -0.0689586 0.0252633 0 
v -0.0615146 0.0331119 1.35525e-19 
v -0.0626673 0.0328332 0 
v -0.0292881 -0.00680929 0 
v 0.0546007 0.0174281 0 
v -0.048496 -0.00639074 0 
v -0.0688097 0.0262384 0 
v -0.0682661 0.0279924 0 
v -0.0685762 0.0271474 0 
v -0.0679215 0.0287089 0 
v -0.0296001 -0.00773623 2.71051e-20 
v 0.0557363 0.0181073 0 
v -0.048178 -0.00772457 0 
v -0.067482 0.0294339 -2.71051e-20 
v -0.0644601 0.0321145 0 
v -0.0650433 0.03178 0 
v -0.0636289 0.0324986 0 
v 0.0582471 0.0235552 2.71051e-20 
v -0.0491756 -0.0157381 0 
v -0.0499368 -0.0172919 -2.71051e-20 
v -0.0298058 -0.00863118 0 
v -0.0174867 0.00478955 0 
v -0.0153157 0.00583052 5.42101e-20 
v 0.0565411 0.0186997 0 
v 0.0372365 -0.0363752 0 
v 0.0284194 -0.0349399 0 
v 0.0143168 -0.0326214 0 
v -0.0657678 0.0312715 0 
v -0.0511278 -0.0192288 0 
v -0.0572001 -0.0262486 0 
v -0.0620544 -0.0312589 0 
v 0.0578962 0.0201477 0 
v 0.0581268 0.0205324 0 
v 0.057586 0.0197288 0 
v 0.00369321 -0.0304402 2.71051e-20 
v -0.0486311 -0.0142973 0 
v -0.0649796 -0.0347352 0 
v 0.0571242 0.0192223 0 
v 0.063664 -0.0403756 0 
v 0.0626201 -0.039489 0 
v 0.0646059 -0.0413699 0 
v -0.00595444 -0.0278982 0 
v -0.0242162 -0.0195579 0 
v -0.025866 -0.0181641 0 
v -0.0669786 0.0301004 -5.42101e-20 
v 0.0583813 0.0232211 -2.71051e-20 
v -0.0683078 -0.0401009 0 
v -0.0692589 -0.0423564 0 
v -0.0670251 -0.0377315 0 
v -0.0482599 -0.0129256 0 
v -0.0531192 -0.0218407 -2.71051e-20 
v 0.0582963 0.0208904 0 
v -0.0314882 -0.0620749 -5.42101e-20 
v -0.0666263 -0.0622074 0 
v 0.056333 -0.0369839 0 
v 0.0549654 -0.0369098 0 
v 0.0654347 -0.0424602 0 
v 0.0661408 -0.0436338 0 
v 0.0667159 -0.0448768 0 
v 0.0386332 -0.0367137 0 
v -0.0270642 -0.0169351 2.71051e-20 
v -0.0664096 0.0307117 0 
v 0.058476 0.0228938 2.71051e-20 
v -0.0699387 -0.0445438 0 
v 0.0584174 0.021228 0 
v -0.0299167 -0.00950732 0 
v 0.00267206 -0.0616284 0 
v 0.0576845 -0.0372055 0 
v 0.0614866 -0.0387204 0 
v 0.0602765 -0.0380788 0 
v 0.0675957 -0.0488738 0 
v 0.0674476 -0.0475122 0 
v 0.0675957 -0.0502434 0 
v -0.0129835 -0.0254996 0 
v -0.0279491 -0.0158309 0 
v -0.0480135 -0.00888784 0 
v 0.0585348 0.0225705 0 
v -0.0703804 -0.0466855 0 
v 0.0333936 -0.0604301 0 
v 0.0354924 -0.0602228 0 
v 0.022548 -0.0610563 0 
v 0.0590042 -0.0375719 0 
v 0.0671532 -0.0461747 0 
v 0.0674476 -0.0516049 0 
v 0.0671532 -0.0529425 0 
v 0.0654347 -0.0566569 0 
v 0.0661408 -0.0554834 0 
v 0.0646059 -0.0577472 0 
v 0.063664 -0.0587415 0 
v 0.0626201 -0.0596282 0 
v -0.0184446 -0.0230976 0 
v -0.0286081 -0.0148208 0 
v 0.0585596 0.022246 0 
v -0.0706103 -0.0489275 0 
v -0.0480379 -0.0115877 0 
v -0.0299378 -0.0103782 0 
v -0.0670794 -0.0615502 0 
v -0.0682463 -0.0595901 0 
v 0.0667159 -0.0542404 0 
v 0.0614866 -0.0603968 0 
v 0.0602765 -0.0610383 0 
v 0.0590042 -0.0615452 0 
v 0.0576845 -0.0619116 0 
v 0.056333 -0.0621332 0 
v 0.0549654 -0.0622074 0 
v -0.0219169 -0.021152 0 
v -0.0290978 -0.0138806 0 
v -0.0298679 -0.0112571 0 
v 0.0585027 0.0215717 2.71051e-20 
v 0.0368096 -0.06005 0 
v 0.0376304 -0.059908 0 
v -0.0691697 -0.0575968 0 
v 0.0389984 -0.0368418 0 
v 0.0391467 -0.0369098 0 
v 0.0585499 0.0219149 -2.71051e-20 
v -0.0479549 -0.0102512 0 
v -0.0297253 -0.0120488 0 
v 0.0381392 -0.0597924 0 
v -0.0698695 -0.055543 0 
v -0.0294554 -0.0129907 0 
v 0.0386465 -0.0596233 0 
v 0.0386745 -0.0596103 0 
v 0.0384532 -0.0596989 0 
v -0.0703487 -0.0534142 0 
v -0.0705998 -0.0512069 0 
v 0.046938 -0.044972 0 
v 0.0471741 -0.0504023 0 
o mesh0
f 1 2 3
f 3 4 1
o mesh1
f 4 3 5
f 5 6 4
o mesh2
f 7 8 9
f 10 11 8
f 12 13 11
f 14 15 13
f 16 17 15
f 18 19 17
f 20 21 19
f 22 21 20
f 23 24 22
f 25 26 24
f 27 28 26
f 29 28 27
f 30 29 31
f 32 33 30
f 34 33 32
f 35 36 34
f 37 38 36
f 39 40 38
f 41 42 40
f 43 44 42
f 45 46 44
f 47 48 46
f 49 50 48
f 51 52 50
f 53 54 52
f 55 56 54
f 57 58 56
f 59 60 58
f 61 62 60
f 6 5 62
f 62 61 6
f 60 59 61
f 58 57 59
f 56 55 57
f 54 53 55
f 52 51 53
f 50 49 51
f 48 47 49
f 46 45 47
f 44 43 45
f 42 41 43
f 40 39 41
f 38 37 39
f 36 35 37
f 34 63 35
f 32 63 34
f 30 64 32
f 31 64 30
f 27 31 29
f 26 25 27
f 24 23 25
f 22 65 23
f 20 65 22
f 19 18 20
f 17 16 18
f 15 14 16
f 13 12 14
f 11 10 12
f 8 7 10
f 9 66 7
o mesh3
f 67 68 69
f 70 71 68
f 72 73 71
f 74 75 73
f 76 77 75
f 78 79 77
f 80 81 79
f 82 83 81
f 84 85 83
f 86 87 85
f 88 89 87
f 90 91 89
f 92 93 91
f 94 93 92
f 95 96 94
f 97 98 96
f 99 100 98
f 101 100 99
f 102 103 101
f 104 105 103
f 106 107 105
f 108 109 107
f 110 109 108
f 111 112 110
f 113 114 112
f 115 116 114
f 117 118 116
f 119 120 118
f 121 122 120
f 123 124 122
f 125 126 124
f 127 128 126
f 129 130 128
f 131 132 130
f 133 134 132
f 135 136 134
f 137 138 136
f 139 140 138
f 141 142 140
f 143 144 142
f 145 146 144
f 147 148 146
f 149 150 148
f 151 152 150
f 66 9 152
f 152 151 66
f 150 149 151
f 148 147 149
f 146 145 147
f 144 143 145
f 142 141 143
f 140 139 141
f 138 137 139
f 136 135 137
f 134 133 135
f 132 131 133
f 130 129 131
f 128 127 129
f 126 125 127
f 124 123 125
f 122 121 123
f 120 119 121
f 118 117 119
f 116 115 117
f 114 113 115
f 112 111 113
f 110 153 111
f 108 153 110
f 107 106 108
f 105 104 106
f 103 102 104
f 101 154 102
f 99 154 101
f 98 97 99
f 96 95 97
f 94 155 95
f 92 155 94
f 91 90 92
f 89 88 90
f 87 86 88
f 85 84 86
f 83 82 84
f 81 80 82
f 79 78 80
f 77 76 78
f 75 74 76
f 73 72 74
f 71 70 72
f 68 67 70
f 69 156 67
o mesh4
f 157 158 159
f 160 161 158
f 162 163 161
f 164 165 163
f 166 167 165
f 168 169 167
f 170 171 169
f 172 173 171
f 174 175 173
f 176 177 175
f 178 179 177
f 180 181 179
f 182 183 181
f 184 185 183
f 186 187 185
f 188 189 187
f 190 191 189
f 192 193 191
f 194 195 193
f 196 195 194
f 197 198 196
f 199 200 198
f 201 202 200
f 203 204 202
f 205 206 204
f 207 208 206
f 209 210 208
f 211 212 210
f 213 214 212
f 215 216 214
f 217 218 216
f 219 220 218
f 221 222 220
f 223 224 222
f 225 226 224
f 227 228 226
f 229 230 228
f 231 232 230
f 233 234 232
f 235 236 234
f 237 238 236
f 239 240 238
f 241 242 240
f 243 244 242
f 245 246 244
f 247 248 246
f 249 250 248
f 251 252 250
f 253 254 252
f 255 256 254
f 257 258 256
f 259 260 258
f 261 262 260
f 263 264 262
f 265 266 264
f 156 69 266
f 266 265 156
f 264 263 265
f 262 261 263
f 260 259 261
f 258 257 259
f 256 255 257
f 254 253 255
f 252 251 253
f 250 249 251
f 248 247 249
f 246 245 247
f 244 243 245
f 242 241 243
f 240 239 241
f 238 237 239
f 236 235 237
f 234 233 235
f 232 231 233
f 230 229 231
f 228 227 229
f 226 225 227
f 224 223 225
f 222 221 223
f 220 219 221
f 218 217 219
f 216 215 217
f 214 213 215
f 212 211 213
f 210 209 211
f 208 207 209
f 206 205 207
f 204 203 205
f 202 201 203
f 200 199 201
f 198 197 199
f 196 267 197
f 194 267 196
f 193 192 194
f 191 190 192
f 189 188 190
f 187 186 188
f 185 184 186
f 183 182 184
f 181 180 182
f 179 178 180
f 177 176 178
f 175 174 176
f 173 172 174
f 171 170 172
f 169 168 170
f 167 166 168
f 165 164 166
f 163 162 164
f 161 160 162
f 158 157 160
f 159 268 157
o mesh5
f 269 270 271
f 272 273 270
f 274 275 273
f 276 277 275
f 278 279 277
f 280 281 279
f 282 283 281
f 284 285 283
f 268 159 285
f 285 284 268
f 283 282 284
f 281 280 282
f 279 278 280
f 277 276 278
f 275 274 276
f 273 272 274
f 270 269 272
f 271 286 269
o mesh6
f 286 271 287
f 287 288 286
o mesh7
f 287 289 290
f 290 288 287
o mesh8
f 2 1 291
f 292 291 293
f 294 293 295
f 296 295 297
f 298 297 299
f 300 299 301
f 302 301 303
f 304 303 305
f 306 305 307
f 308 307 309
f 310 309 311
f 312 311 313
f 314 313 315
f 316 315 317
f 318 317 319
f 320 319 321
f 322 321 323
f 324 323 325
f 326 325 327
f 328 327 329
f 330 329 331
f 332 331 333
f 334 333 335
f 336 335 337
f 338 337 339
f 340 339 341
f 342 341 343
f 344 343 345
f 346 345 347
f 348 347 349
f 350 349 351
f 352 351 290
f 290 289 352
f 351 352 350
f 349 350 348
f 347 348 346
f 345 346 344
f 343 344 342
f 341 342 340
f 339 340 338
f 337 338 336
f 335 336 334
f 333 334 332
f 331 332 330
f 329 330 328
f 327 328 326
f 325 326 324
f 323 324 322
f 321 322 320
f 319 320 318
f 317 318 316
f 315 316 314
f 313 314 312
f 311 312 310
f 309 310 308
f 307 308 306
f 305 306 304
f 303 304 302
f 301 302 300
f 299 300 298
f 297 298 296
f 295 296 294
f 293 294 292
f 291 292 2
o mesh9
f 70 67 353
f 354 353 67
f 135 355 356
f 357 139 137
f 72 70 358
f 67 156 354
f 137 356 357
f 133 359 355
f 74 72 360
f 353 358 70
f 355 135 133
f 131 361 359
f 362 363 7
f 362 66 151
f 86 364 365
f 84 366 364
f 358 360 72
f 156 265 367
f 229 227 368
f 227 225 369
f 359 133 131
f 370 141 139
f 151 371 362
f 363 372 10
f 88 365 373
f 364 86 84
f 76 74 374
f 367 354 156
f 231 229 375
f 369 368 227
f 139 357 370
f 129 376 361
f 371 151 149
f 10 7 363
f 90 373 377
f 365 88 86
f 78 76 378
f 360 374 74
f 233 231 379
f 368 375 229
f 221 219 380
f 381 380 219
f 361 131 129
f 127 382 376
f 7 66 362
f 372 383 12
f 92 377 384
f 373 90 88
f 82 385 366
f 80 386 385
f 80 78 387
f 374 378 76
f 375 379 231
f 225 223 388
f 381 217 215
f 219 217 381
f 376 129 127
f 125 389 382
f 12 10 372
f 383 16 14
f 155 384 390
f 377 92 90
f 385 82 80
f 378 387 78
f 235 233 391
f 388 369 225
f 392 211 209
f 393 213 211
f 394 215 213
f 380 395 221
f 382 127 125
f 396 143 141
f 14 12 383
f 384 155 92
f 387 386 80
f 265 263 397
f 263 261 398
f 237 235 399
f 379 391 233
f 211 392 393
f 215 394 381
f 141 370 396
f 123 400 389
f 383 18 16
f 366 84 82
f 398 397 263
f 245 243 401
f 243 241 402
f 239 237 403
f 391 399 235
f 404 209 207
f 213 393 394
f 389 125 123
f 121 405 400
f 383 20 18
f 406 407 194
f 407 408 267
f 95 390 409
f 397 367 265
f 259 257 410
f 257 255 411
f 247 245 412
f 402 401 243
f 241 239 413
f 399 403 237
f 414 207 205
f 209 404 392
f 400 123 121
f 119 415 405
f 416 145 143
f 417 147 145
f 383 65 20
f 186 184 418
f 419 420 188
f 421 406 192
f 267 194 407
f 390 95 155
f 261 259 422
f 411 410 257
f 255 253 423
f 401 412 245
f 403 413 239
f 223 221 395
f 207 414 404
f 405 121 119
f 145 416 417
f 424 149 147
f 383 23 65
f 117 115 425
f 115 113 426
f 188 186 419
f 184 182 427
f 194 192 406
f 408 428 197
f 422 398 261
f 423 411 255
f 413 402 241
f 205 429 414
f 143 396 416
f 149 424 371
f 426 425 115
f 111 430 426
f 427 418 184
f 420 421 190
f 197 267 408
f 428 431 199
f 180 178 432
f 178 176 433
f 97 409 434
f 410 422 259
f 249 247 435
f 395 388 223
f 55 53 436
f 57 55 437
f 147 417 424
f 117 438 415
f 426 113 111
f 153 439 430
f 190 188 420
f 199 197 428
f 433 432 178
f 176 174 440
f 99 434 441
f 409 97 95
f 251 249 442
f 412 435 247
f 64 443 444
f 445 436 53
f 437 446 57
f 415 119 117
f 430 111 153
f 108 447 439
f 192 190 421
f 182 180 448
f 440 433 176
f 174 172 449
f 154 441 450
f 434 99 97
f 429 205 203
f 435 442 249
f 64 451 443
f 452 453 41
f 453 454 43
f 455 445 51
f 436 437 55
f 383 25 23
f 439 153 108
f 448 427 182
f 431 456 201
f 449 440 174
f 172 170 457
f 102 450 458
f 441 154 99
f 253 251 459
f 442 459 251
f 64 460 461
f 64 462 451
f 463 452 39
f 43 41 453
f 59 57 446
f 53 51 445
f 464 268 284
f 282 465 466
f 425 438 117
f 201 199 431
f 457 449 172
f 450 102 154
f 203 467 429
f 157 468 469
f 157 268 464
f 444 460 64
f 470 463 37
f 41 39 452
f 471 455 49
f 51 49 455
f 466 284 282
f 280 472 465
f 383 27 25
f 432 448 180
f 456 467 203
f 104 458 473
f 459 423 253
f 160 469 474
f 464 468 157
f 64 475 462
f 476 470 35
f 39 37 463
f 477 471 47
f 446 478 59
f 465 282 280
f 472 280 278
f 278 276 479
f 383 31 27
f 106 473 447
f 203 201 456
f 458 104 102
f 162 474 480
f 469 160 157
f 64 481 475
f 482 476 63
f 37 35 470
f 454 477 45
f 49 47 471
f 278 483 472
f 276 484 479
f 337 335 485
f 335 333 486
f 447 108 106
f 473 106 104
f 170 168 487
f 164 480 488
f 474 162 160
f 64 489 481
f 61 490 491
f 61 59 478
f 35 63 476
f 47 45 477
f 479 483 278
f 276 274 492
f 313 311 493
f 311 309 494
f 307 305 495
f 305 303 496
f 303 301 497
f 301 299 498
f 343 341 499
f 341 339 500
f 339 337 501
f 486 485 335
f 333 331 502
f 331 329 503
f 325 323 504
f 323 321 505
f 383 64 31
f 487 457 170
f 166 488 487
f 480 164 162
f 64 383 489
f 506 482 32
f 478 490 61
f 45 43 454
f 492 484 276
f 274 272 507
f 315 313 508
f 494 493 311
f 309 307 509
f 496 495 305
f 498 497 301
f 299 297 510
f 297 295 511
f 295 293 512
f 347 345 513
f 345 343 514
f 500 499 341
f 485 501 337
f 503 502 331
f 329 327 515
f 327 325 516
f 505 504 323
f 418 419 186
f 488 166 164
f 32 64 506
f 63 32 482
f 507 492 274
f 269 517 518
f 269 286 519
f 319 317 520
f 317 315 521
f 493 508 313
f 495 509 307
f 510 498 299
f 512 511 295
f 293 291 522
f 349 347 523
f 524 290 351
f 514 513 345
f 501 500 339
f 515 503 329
f 504 516 325
f 487 168 166
f 491 6 61
f 272 518 507
f 519 517 269
f 521 520 317
f 509 494 309
f 511 510 297
f 522 512 293
f 351 349 524
f 499 514 343
f 516 515 327
f 321 319 525
f 491 526 4
f 461 506 64
f 518 272 269
f 519 286 288
f 508 521 315
f 291 1 522
f 513 523 347
f 525 505 321
f 356 137 135
f 288 527 519
f 497 496 303
f 522 1 4
f 524 527 288
f 502 486 333
f 284 466 464
f 4 526 522
f 523 524 349
f 520 525 319
f 4 6 491
f 288 290 524
o mesh10
f 528 69 68
f 71 529 530
f 531 532 138
f 136 138 532
f 530 68 71
f 73 533 529
f 134 136 534
f 532 534 136
f 529 71 73
f 75 535 533
f 536 537 152
f 536 9 8
f 132 134 538
f 138 140 531
f 228 539 540
f 230 541 539
f 69 528 542
f 533 73 75
f 85 87 543
f 87 89 544
f 545 8 11
f 8 545 536
f 546 531 140
f 534 538 134
f 539 228 230
f 232 547 541
f 68 530 528
f 77 548 535
f 544 543 87
f 89 91 549
f 152 9 536
f 537 550 150
f 130 132 551
f 538 551 132
f 552 218 220
f 222 553 554
f 541 230 232
f 234 555 547
f 535 75 77
f 79 556 548
f 549 544 89
f 91 93 557
f 558 15 17
f 559 13 15
f 560 11 13
f 150 152 537
f 128 130 561
f 140 142 546
f 554 220 222
f 552 562 216
f 226 540 563
f 547 232 234
f 548 77 79
f 81 564 556
f 81 83 565
f 83 85 566
f 557 549 91
f 93 94 567
f 15 558 559
f 11 560 545
f 126 128 568
f 551 561 130
f 216 218 552
f 562 569 214
f 569 570 212
f 570 571 210
f 540 226 228
f 236 572 555
f 556 79 81
f 566 565 83
f 567 557 93
f 94 96 573
f 574 17 19
f 13 559 560
f 575 546 142
f 561 568 128
f 214 216 562
f 210 212 570
f 555 234 236
f 238 576 572
f 264 577 578
f 266 542 577
f 565 564 81
f 573 567 94
f 579 19 21
f 17 574 558
f 124 126 580
f 568 580 126
f 212 214 569
f 571 581 208
f 572 236 238
f 240 582 576
f 244 583 584
f 246 585 583
f 577 264 266
f 543 566 85
f 586 21 22
f 19 579 574
f 122 124 587
f 142 144 575
f 208 210 571
f 581 588 206
f 576 238 240
f 242 584 582
f 583 244 246
f 248 589 585
f 258 590 591
f 260 592 590
f 542 266 69
f 96 98 593
f 594 195 196
f 595 193 195
f 596 22 24
f 21 586 579
f 597 598 146
f 598 575 144
f 120 122 599
f 580 587 124
f 58 600 601
f 56 601 602
f 206 208 581
f 224 563 553
f 582 240 242
f 585 246 248
f 256 591 603
f 590 258 260
f 262 578 592
f 593 573 96
f 195 594 595
f 604 191 193
f 605 187 189
f 187 605 606
f 116 607 608
f 118 609 607
f 22 596 586
f 550 597 148
f 144 146 598
f 587 599 122
f 602 54 56
f 610 52 54
f 553 222 224
f 584 242 244
f 591 256 258
f 578 262 264
f 611 196 198
f 193 595 604
f 185 606 612
f 606 185 187
f 112 114 608
f 607 116 118
f 148 150 550
f 599 613 120
f 306 614 615
f 308 616 614
f 54 602 610
f 617 50 52
f 618 42 44
f 619 40 42
f 563 224 226
f 250 620 589
f 592 260 262
f 98 100 621
f 179 622 623
f 181 624 622
f 625 198 200
f 196 611 594
f 626 189 191
f 189 626 605
f 110 112 627
f 608 114 116
f 118 120 613
f 146 148 597
f 283 285 628
f 629 628 285
f 294 630 631
f 614 306 308
f 310 632 616
f 312 633 632
f 314 634 633
f 52 610 617
f 60 635 600
f 42 618 619
f 636 38 40
f 589 248 250
f 252 637 620
f 621 593 98
f 100 101 638
f 177 623 639
f 622 179 181
f 198 625 611
f 612 183 185
f 109 110 640
f 608 627 112
f 641 24 26
f 24 641 596
f 281 283 642
f 285 159 629
f 631 2 292
f 296 643 630
f 302 644 645
f 304 615 644
f 616 308 310
f 633 312 314
f 320 646 647
f 322 648 646
f 600 58 60
f 649 48 50
f 40 619 636
f 650 36 38
f 620 250 252
f 588 651 204
f 638 621 100
f 101 103 652
f 175 639 653
f 623 177 179
f 183 612 624
f 191 604 626
f 627 640 110
f 613 609 118
f 279 654 655
f 656 654 279
f 628 642 283
f 630 294 296
f 298 657 643
f 300 645 657
f 644 302 304
f 632 310 312
f 316 658 634
f 318 647 658
f 646 320 322
f 324 659 648
f 326 660 659
f 332 661 662
f 334 663 661
f 336 664 663
f 338 665 664
f 50 617 649
f 666 46 48
f 38 636 650
f 667 34 36
f 204 206 588
f 254 603 637
f 652 638 101
f 103 105 668
f 173 653 669
f 639 175 177
f 670 200 202
f 200 670 625
f 671 26 28
f 26 671 641
f 655 277 279
f 642 656 281
f 158 672 629
f 158 161 673
f 643 296 298
f 645 300 302
f 634 314 316
f 647 318 320
f 659 324 326
f 328 674 660
f 330 662 674
f 661 332 334
f 664 336 338
f 340 675 665
f 342 676 675
f 344 677 676
f 346 678 677
f 348 679 678
f 680 350 352
f 350 680 679
f 48 649 666
f 681 44 46
f 36 650 667
f 682 33 34
f 637 252 254
f 668 652 103
f 653 173 175
f 624 181 183
f 683 28 29
f 640 684 109
f 277 685 686
f 279 281 656
f 673 672 158
f 161 163 687
f 657 298 300
f 658 316 318
f 660 326 328
f 662 330 332
f 665 338 340
f 676 342 344
f 678 346 348
f 679 348 350
f 46 666 681
f 34 667 682
f 62 688 635
f 62 5 689
f 603 254 256
f 105 107 690
f 691 202 204
f 202 691 670
f 692 29 30
f 107 109 684
f 28 683 671
f 275 686 693
f 655 685 277
f 687 673 161
f 163 165 694
f 615 304 306
f 674 328 330
f 675 340 342
f 352 289 680
f 44 681 618
f 689 688 62
f 690 668 105
f 669 171 173
f 30 682 695
f 29 692 683
f 270 696 697
f 270 273 698
f 686 275 277
f 694 687 163
f 165 167 699
f 648 322 324
f 677 344 346
f 635 60 62
f 204 651 691
f 684 690 107
f 698 696 270
f 693 273 275
f 699 694 165
f 167 169 700
f 631 701 3
f 663 334 336
f 682 30 33
f 30 695 692
f 697 702 287
f 693 698 273
f 700 699 167
f 171 669 700
f 631 292 294
f 680 289 287
f 220 554 552
f 689 5 3
f 697 271 270
f 700 169 171
f 287 702 680
f 3 701 689
f 629 159 158
f 601 56 58
f 3 2 631
f 287 271 697
o mesh11
f 466 628 629
f 465 642 628
f 472 656 642
f 483 654 656
f 479 655 654
f 484 685 655
f 492 686 685
f 507 693 686
f 518 698 693
f 517 696 698
f 519 697 696
f 696 517 519
f 698 518 517
f 693 507 518
f 686 492 507
f 685 484 492
f 655 479 484
f 654 483 479
f 656 472 483
f 642 465 472
f 628 466 465
f 629 464 466
o mesh12
f 367 542 528
f 577 542 367
f 398 578 577
f 422 592 578
f 410 590 592
f 411 591 590
f 423 603 591
f 459 637 603
f 442 620 637
f 435 589 620
f 412 585 589
f 401 583 585
f 402 584 583
f 413 582 584
f 403 576 582
f 399 572 576
f 391 555 572
f 379 547 555
f 375 541 547
f 368 539 541
f 369 540 539
f 388 563 540
f 395 553 563
f 380 554 553
f 381 552 554
f 394 562 552
f 393 569 562
f 392 570 569
f 404 571 570
f 414 581 571
f 429 588 581
f 467 651 588
f 456 691 651
f 431 670 691
f 428 625 670
f 408 611 625
f 407 594 611
f 406 595 594
f 421 604 595
f 420 626 604
f 419 605 626
f 418 606 605
f 427 612 606
f 448 624 612
f 432 622 624
f 433 623 622
f 440 639 623
f 449 653 639
f 457 669 653
f 487 700 669
f 488 699 700
f 480 694 699
f 474 687 694
f 469 673 687
f 468 672 673
f 464 629 672
f 672 468 464
f 673 469 468
f 687 474 469
f 694 480 474
f 699 488 480
f 700 487 488
f 669 457 487
f 653 449 457
f 639 440 449
f 623 433 440
f 622 432 433
f 624 448 432
f 612 427 448
f 606 418 427
f 605 419 418
f 626 420 419
f 604 421 420
f 595 406 421
f 594 407 406
f 611 408 407
f 625 428 408
f 670 431 428
f 691 456 431
f 651 467 456
f 588 429 467
f 581 414 429
f 571 404 414
f 570 392 404
f 569 393 392
f 562 394 393
f 552 381 394
f 554 380 381
f 553 395 380
f 563 388 395
f 540 369 388
f 539 368 369
f 541 375 368
f 547 379 375
f 555 391 379
f 572 399 391
f 576 403 399
f 582 413 403
f 584 402 413
f 583 401 402
f 585 412 401
f 589 435 412
f 620 442 435
f 637 459 442
f 603 423 459
f 591 411 423
f 590 410 411
f 592 422 410
f 578 398 422
f 577 397 398
f 367 397 577
f 528 354 367
o mesh13
f 537 536 362
f 424 550 537
f 417 597 550
f 416 598 597
f 396 575 598
f 370 546 575
f 357 531 546
f 356 532 531
f 355 534 532
f 359 538 534
f 361 551 538
f 376 561 551
f 382 568 561
f 389 580 568
f 400 587 580
f 405 599 587
f 415 613 599
f 438 609 613
f 425 607 609
f 426 608 607
f 430 627 608
f 439 640 627
f 684 640 439
f 473 690 684
f 668 690 473
f 450 652 668
f 638 652 450
f 434 621 638
f 593 621 434
f 390 573 593
f 567 573 390
f 377 557 567
f 373 549 557
f 365 544 549
f 364 543 544
f 366 566 543
f 385 565 566
f 386 564 565
f 387 556 564
f 378 548 556
f 374 535 548
f 360 533 535
f 358 529 533
f 353 530 529
f 354 528 530
f 530 353 354
f 529 358 353
f 533 360 358
f 535 374 360
f 548 378 374
f 556 387 378
f 564 386 387
f 565 385 386
f 566 366 385
f 543 364 366
f 544 365 364
f 549 373 365
f 557 377 373
f 567 384 377
f 390 384 567
f 593 409 390
f 434 409 593
f 638 441 434
f 450 441 638
f 668 458 450
f 473 458 668
f 684 447 473
f 439 447 684
f 627 430 439
f 608 426 430
f 607 425 426
f 609 438 425
f 613 415 438
f 599 405 415
f 587 400 405
f 580 389 400
f 568 382 389
f 561 376 382
f 551 361 376
f 538 359 361
f 534 355 359
f 532 356 355
f 531 357 356
f 546 370 357
f 575 396 370
f 598 416 396
f 597 417 416
f 550 424 417
f 537 371 424
f 362 371 537
o mesh14
f 490 688 689
f 478 635 688
f 446 600 635
f 437 601 600
f 436 602 601
f 445 610 602
f 455 617 610
f 471 649 617
f 477 666 649
f 454 681 666
f 453 618 681
f 452 619 618
f 463 636 619
f 470 650 636
f 476 667 650
f 482 682 667
f 506 695 682
f 461 692 695
f 460 683 692
f 444 671 683
f 443 641 671
f 451 596 641
f 462 586 596
f 475 579 586
f 481 574 579
f 489 558 574
f 383 559 558
f 372 560 559
f 363 545 560
f 362 536 545
f 545 363 362
f 560 372 363
f 559 383 372
f 558 489 383
f 574 481 489
f 579 475 481
f 586 462 475
f 596 451 462
f 641 443 451
f 671 444 443
f 683 460 444
f 692 461 460
f 695 506 461
f 682 482 506
f 667 476 482
f 650 470 476
f 636 463 470
f 619 452 463
f 618 453 452
f 681 454 453
f 666 477 454
f 649 471 477
f 617 455 471
f 610 445 455
f 602 436 445
f 601 437 436
f 600 446 437
f 635 478 446
f 688 490 478
f 689 491 490
o mesh15
f 491 689 701
f 701 526 491
o mesh16
f 526 701 631
f 631 522 526
o mesh17
f 679 680 524
f 678 679 523
f 677 678 513
f 676 677 514
f 675 676 499
f 665 675 500
f 664 665 501
f 663 664 485
f 661 663 486
f 662 661 502
f 674 662 503
f 660 674 515
f 659 660 516
f 648 659 504
f 646 648 505
f 647 646 525
f 658 647 520
f 634 658 521
f 633 634 508
f 632 633 493
f 616 632 494
f 614 616 509
f 615 614 495
f 644 615 496
f 645 644 497
f 657 645 498
f 643 657 510
f 630 643 511
f 631 630 512
f 512 522 631
f 511 512 630
f 510 511 643
f 498 510 657
f 497 498 645
f 496 497 644
f 495 496 615
f 509 495 614
f 494 509 616
f 493 494 632
f 508 493 633
f 521 508 634
f 520 521 658
f 525 520 647
f 505 525 646
f 504 505 648
f 516 504 659
f 515 516 660
f 503 515 674
f 502 503 662
f 486 502 661
f 485 486 663
f 501 485 664
f 500 501 665
f 499 500 675
f 514 499 676
f 513 514 677
f 523 513 678
f 524 523 679
o mesh18
f 524 680 702
f 702 527 524
o mesh19
f 527 702 697
f 697 519 527
