# OBJ generated by ONSHAPE BY PTC INC, 1.204 Units = meters
g Mid_Track
v 0.117357 0.0117086 1e-05 
v 0.117357 0.0117086 0 
v 0.20385 0.0117086 0 
v 0.20385 0.0117086 1e-05 
v 0.234215 0.000317417 1e-05 
v 0.234215 0.000317417 0 
v 0.234187 6.10075e-18 0 
v 0.234234 0.00108587 1e-05 
v 0.234234 0.00108587 0 
v 0.23418 0.00179605 1e-05 
v 0.23418 0.00179605 0 
v 0.234062 0.00246591 1e-05 
v 0.234062 0.00246591 0 
v 0.233878 0.00311084 1e-05 
v 0.233878 0.00311084 0 
v 0.233623 0.00374495 1e-05 
v 0.233623 0.00374495 0 
v 0.233284 0.00437981 1e-05 
v 0.233284 0.00437981 0 
v 0.232896 0.0049555 1e-05 
v 0.232896 0.0049555 0 
v 0.232375 0.00558191 1e-05 
v 0.232375 0.00558191 0 
v 0.231758 0.00618642 1e-05 
v 0.231758 0.00618642 0 
v 0.230971 0.00681952 1e-05 
v 0.230971 0.00681952 0 
v 0.229948 0.00749106 1e-05 
v 0.229948 0.00749106 0 
v 0.228581 0.0082104 1e-05 
v 0.228581 0.0082104 0 
v 0.22676 0.0089605 1e-05 
v 0.22676 0.0089605 0 
v 0.223982 0.00980833 1e-05 
v 0.223982 0.00980833 0 
v 0.21982 0.0106607 1e-05 
v 0.21982 0.0106607 0 
v 0.213237 0.0114007 1e-05 
v 0.213237 0.0114007 3.38813e-21 
v 0.234187 6.10075e-18 1e-05 
v 0.114935 -3.46945e-18 0 
v 0.114935 -3.46945e-18 1e-05 
v 0.0433696 -0.0194327 0 
v 0.0398518 -0.0161092 0 
v 0.0398518 -0.0161092 1e-05 
v 0.0472239 -0.0223593 0 
v 0.0433696 -0.0194327 1e-05 
v 0.0513703 -0.024855 0 
v 0.0472239 -0.0223593 1e-05 
v 0.0557606 -0.0268911 0 
v 0.0513703 -0.024855 1e-05 
v 0.0603443 -0.0284439 0 
v 0.0557606 -0.0268911 1e-05 
v 0.0650681 -0.0294954 0 
v 0.0603443 -0.0284439 1e-05 
v 0.0698776 -0.0300336 0 
v 0.0650681 -0.0294954 1e-05 
v 0.0747171 -0.0300522 0 
v 0.0698776 -0.0300336 1e-05 
v 0.0795305 -0.029551 0 
v 0.0747171 -0.0300522 1e-05 
v 0.0842623 -0.0285358 0 
v 0.0795305 -0.029551 1e-05 
v 0.0888578 -0.0270183 0 
v 0.0842623 -0.0285358 1e-05 
v 0.0932637 -0.0250161 0 
v 0.0888578 -0.0270183 1e-05 
v 0.0974291 -0.0225523 0 
v 0.0932637 -0.0250161 1e-05 
v 0.101306 -0.0196555 0 
v 0.0974291 -0.0225523 1e-05 
v 0.104849 -0.0163591 0 
v 0.101306 -0.0196555 1e-05 
v 0.108018 -0.0127012 0 
v 0.104849 -0.0163591 1e-05 
v 0.110775 -0.00872423 0 
v 0.108018 -0.0127012 1e-05 
v 0.11309 -0.0044741 0 
v 0.110775 -0.00872423 1e-05 
v 0.11309 -0.0044741 1e-05 
v -0.00294602 -0.0103764 0 
v -0.00643623 -0.00753312 0 
v -0.00643623 -0.00753312 1e-05 
v 0.000810818 -0.0128567 0 
v -0.00294602 -0.0103764 1e-05 
v 0.00479667 -0.0149492 0 
v 0.000810818 -0.0128567 1e-05 
v 0.00897165 -0.016633 0 
v 0.00479667 -0.0149492 1e-05 
v 0.013294 -0.0178913 0 
v 0.00897165 -0.016633 1e-05 
v 0.0177204 -0.0187114 0 
v 0.013294 -0.0178913 1e-05 
v 0.0222066 -0.0190851 0 
v 0.0177204 -0.0187114 1e-05 
v 0.0267077 -0.0190088 0 
v 0.0222066 -0.0190851 1e-05 
v 0.0311786 -0.0184831 0 
v 0.0267077 -0.0190088 1e-05 
v 0.0355747 -0.0175133 0 
v 0.0311786 -0.0184831 1e-05 
v 0.0355747 -0.0175133 1e-05 
v -0.0134344 -0.00759746 0 
v -0.0134344 -0.00759746 1e-05 
v -0.0139167 0.0585747 0 
v -0.0105117 0.0551292 0 
v -0.0105117 0.0551292 1e-05 
v -0.0176724 0.0616342 0 
v -0.0139167 0.0585747 1e-05 
v -0.0217351 0.0642723 0 
v -0.0176724 0.0616342 1e-05 
v -0.026058 0.0664583 0 
v -0.0217351 0.0642723 1e-05 
v -0.0305907 0.0681671 0 
v -0.026058 0.0664583 1e-05 
v -0.0352809 0.0693787 0 
v -0.0305907 0.0681671 1e-05 
v -0.0400741 0.0700791 0 
v -0.0352809 0.0693787 1e-05 
v -0.0449148 0.0702602 0 
v -0.0400741 0.0700791 1e-05 
v -0.049747 0.06992 0 
v -0.0449148 0.0702602 1e-05 
v -0.0545146 0.0690623 0 
v -0.049747 0.06992 1e-05 
v -0.0591623 0.0676971 0 
v -0.0545146 0.0690623 1e-05 
v -0.0636364 0.0658402 0 
v -0.0591623 0.0676971 1e-05 
v -0.067885 0.0635132 0 
v -0.0636364 0.0658402 1e-05 
v -0.0718588 0.060743 0 
v -0.067885 0.0635132 1e-05 
v -0.0755119 0.0575616 0 
v -0.0718588 0.060743 1e-05 
v -0.0788018 0.054006 0 
v -0.0755119 0.0575616 1e-05 
v -0.0816904 0.0501174 0 
v -0.0788018 0.054006 1e-05 
v -0.0841443 0.0459408 0 
v -0.0816904 0.0501174 1e-05 
v -0.0861351 0.0415247 0 
v -0.0841443 0.0459408 1e-05 
v -0.0876396 0.0369201 0 
v -0.0861351 0.0415247 1e-05 
v -0.0886404 0.0321805 0 
v -0.0876396 0.0369201 1e-05 
v -0.089126 0.0273608 0 
v -0.0886404 0.0321805 1e-05 
v -0.0890907 0.0225168 0 
v -0.089126 0.0273608 1e-05 
v -0.0885349 0.0177047 0 
v -0.0890907 0.0225168 1e-05 
v -0.0874651 0.0129801 0 
v -0.0885349 0.0177047 1e-05 
v -0.0858936 0.00839801 0 
v -0.0874651 0.0129801 1e-05 
v -0.0838387 0.00401134 0 
v -0.0858936 0.00839801 1e-05 
v -0.0813241 -0.000129032 0 
v -0.0838387 0.00401134 1e-05 
v -0.0783791 -0.00397512 0 
v -0.0813241 -0.000129032 1e-05 
v -0.0750378 -0.00748236 0 
v -0.0783791 -0.00397512 1e-05 
v -0.0713387 -0.0106101 0 
v -0.0750378 -0.00748236 1e-05 
v -0.067325 -0.0133221 0 
v -0.0713387 -0.0106101 1e-05 
v -0.0630429 -0.015587 0 
v -0.067325 -0.0133221 1e-05 
v -0.0585422 -0.0173785 0 
v -0.0630429 -0.015587 1e-05 
v -0.053875 -0.0186757 0 
v -0.0585422 -0.0173785 1e-05 
v -0.0490954 -0.0194638 0 
v -0.053875 -0.0186757 1e-05 
v -0.0442588 -0.0197336 0 
v -0.0490954 -0.0194638 1e-05 
v -0.0394213 -0.0194819 0 
v -0.0442588 -0.0197336 1e-05 
v -0.0346388 -0.0187117 0 
v -0.0394213 -0.0194819 1e-05 
v -0.0299668 -0.0174318 0 
v -0.0346388 -0.0187117 1e-05 
v -0.0254594 -0.0156572 0 
v -0.0299668 -0.0174318 1e-05 
v -0.0211689 -0.0134084 0 
v -0.0254594 -0.0156572 1e-05 
v -0.017145 -0.0107114 0 
v -0.0211689 -0.0134084 1e-05 
v -0.017145 -0.0107114 1e-05 
v 0.0528964 0.0601286 0 
v 0.0563131 0.056891 0 
v 0.0563131 0.056891 1e-05 
v 0.0491602 0.0629916 0 
v 0.0528964 0.0601286 1e-05 
v 0.0451455 0.0654487 0 
v 0.0491602 0.0629916 1e-05 
v 0.040896 0.0674729 0 
v 0.0451455 0.0654487 1e-05 
v 0.0364584 0.0690422 0 
v 0.040896 0.0674729 1e-05 
v 0.0318811 0.0701394 0 
v 0.0364584 0.0690422 1e-05 
v 0.0272142 0.0707524 0 
v 0.0318811 0.0701394 1e-05 
v 0.0225088 0.0708746 0 
v 0.0272142 0.0707524 1e-05 
v 0.0178164 0.0705046 0 
v 0.0225088 0.0708746 1e-05 
v 0.0131883 0.0696465 0 
v 0.0178164 0.0705046 1e-05 
v 0.00867519 0.0683097 0 
v 0.0131883 0.0696465 1e-05 
v 0.00432639 0.0665088 0 
v 0.00867519 0.0683097 1e-05 
v 0.000189492 0.0642634 0 
v 0.00432639 0.0665088 1e-05 
v -0.00369023 0.0615982 0 
v 0.000189492 0.0642634 1e-05 
v -0.00727034 0.0585424 0 
v -0.00369023 0.0615982 1e-05 
v -0.00727034 0.0585424 1e-05 
v 0.117443 0.0164634 0 
v 0.117026 0.0212006 0 
v 0.117443 0.0164634 1e-05 
v 0.116111 0.0258674 0 
v 0.117026 0.0212006 1e-05 
v 0.114709 0.0304116 0 
v 0.116111 0.0258674 1e-05 
v 0.112835 0.0347825 0 
v 0.114709 0.0304116 1e-05 
v 0.110511 0.0389312 0 
v 0.112835 0.0347825 1e-05 
v 0.107762 0.0428114 0 
v 0.110511 0.0389312 1e-05 
v 0.104618 0.0463799 0 
v 0.107762 0.0428114 1e-05 
v 0.101116 0.0495967 0 
v 0.104618 0.0463799 1e-05 
v 0.0972931 0.0524259 0 
v 0.101116 0.0495967 1e-05 
v 0.0931935 0.0548359 0 
v 0.0972931 0.0524259 1e-05 
v 0.0888624 0.0567998 0 
v 0.0931935 0.0548359 1e-05 
v 0.0843482 0.0582957 0 
v 0.0888624 0.0567998 1e-05 
v 0.0797014 0.0593068 0 
v 0.0843482 0.0582957 1e-05 
v 0.0749738 0.0598219 0 
v 0.0797014 0.0593068 1e-05 
v 0.0702183 0.0598353 0 
v 0.0749738 0.0598219 1e-05 
v 0.0654879 0.0593467 0 
v 0.0702183 0.0598353 1e-05 
v 0.0608355 0.0583616 0 
v 0.0654879 0.0593467 1e-05 
v 0.0608355 0.0583616 1e-05 
v 0.20468 0.0217086 1e-05 
v 0.122003 0.0217086 1e-05 
v 0.221848 0.0195645 1e-05 
v 0.21751 0.0206063 1e-05 
v 0.211867 0.0213936 1e-05 
v -0.0548233 -0.0235866 1e-05 
v -0.0495074 -0.0244485 1e-05 
v -0.0441296 -0.0247337 1e-05 
v -0.0291222 0.0729467 1e-05 
v -0.0343376 0.0742891 1e-05 
v -0.0396671 0.0750627 1e-05 
v -0.0600157 -0.022158 1e-05 
v 0.225339 0.0183582 1e-05 
v 0.0668904 -0.0347961 1e-05 
v 0.0721585 -0.0351074 1e-05 
v -0.0240815 0.0710512 1e-05 
v -0.0450488 0.0752587 1e-05 
v -0.0504205 0.0748747 1e-05 
v -0.0941249 0.0274999 1e-05 
v -0.0940753 0.0221148 1e-05 
v -0.093447 0.0167662 1e-05 
v -0.0387523 -0.0244388 1e-05 
v 0.232737 0.0141095 1e-05 
v 0.23065 0.015619 1e-05 
v 0.22822 0.0170362 1e-05 
v 0.0616846 -0.0339312 1e-05 
v 0.0774299 -0.0348618 1e-05 
v -0.0608849 0.0723914 1e-05 
v -0.0658563 0.0703208 1e-05 
v -0.0705762 0.0677276 1e-05 
v -0.092247 0.0115163 1e-05 
v -0.0742607 -0.0146691 1e-05 
v -0.0697911 -0.0176732 1e-05 
v -0.0650244 -0.0201792 1e-05 
v -0.033438 -0.0235673 1e-05 
v -0.0282482 -0.0221293 1e-05 
v -0.0232431 -0.0201415 1e-05 
v 0.0340912 0.0747975 1e-05 
v 0.0287994 0.075629 1e-05 
v 0.0826462 -0.0340619 1e-05 
v 0.087749 -0.0327167 1e-05 
v 0.0926817 -0.0308412 1e-05 
v -0.0105775 0.0622964 1e-05 
v -0.014755 0.065695 1e-05 
v -0.0192738 0.0686246 1e-05 
v -0.0557197 0.0739152 1e-05 
v -0.0749898 0.0646419 1e-05 
v -0.0826975 0.057141 1e-05 
v -0.0859022 0.052813 1e-05 
v -0.0886229 0.0481654 1e-05 
v -0.0904893 0.00642583 1e-05 
v -0.0881944 0.00155396 1e-05 
v -0.0853887 -0.00304284 1e-05 
v -0.082105 -0.00731122 1e-05 
v 0.0442574 0.0714663 1e-05 
v 0.0392636 0.0734046 1e-05 
v 0.023449 0.0758896 1e-05 
v 0.0181014 0.0755764 1e-05 
v 0.0128181 0.0746929 1e-05 
v 0.00765955 0.0732492 1e-05 
v 0.00268508 0.071262 1e-05 
v 0.119374 0.0322123 1e-05 
v 0.117223 0.0371892 1e-05 
v 0.114546 0.0419038 1e-05 
v 0.111373 0.0463008 1e-05 
v 0.107744 0.0503285 1e-05 
v 0.234291 0.0127556 1e-05 
v 0.0565989 -0.0325225 1e-05 
v 0.112969 -0.0144318 1e-05 
v 0.115834 -0.01 1e-05 
v -0.00990244 -0.0111398 1e-05 
v -0.00588218 -0.0144236 1e-05 
v -0.0790459 0.0610993 1e-05 
v -0.0908279 0.0432521 1e-05 
v -0.0935949 0.0328591 1e-05 
v -0.0184809 -0.0176269 1e-05 
v -0.0140167 -0.0146147 1e-05 
v 0.120974 0.0270318 1e-05 
v 0.0992877 0.0570913 1e-05 
v 0.0945608 0.059747 1e-05 
v 0.0895741 0.0618752 1e-05 
v 0.0682336 0.0647118 1e-05 
v 0.0628641 0.0639602 1e-05 
v 0.0576075 0.0626316 1e-05 
v 0.236046 0.0109077 1e-05 
v 0.0973893 -0.0284562 1e-05 
v 0.101819 -0.0255884 1e-05 
v 0.105922 -0.0222696 1e-05 
v 0.109653 -0.0185369 1e-05 
v -0.00154315 -0.0172728 1e-05 
v -0.0924916 0.0381302 1e-05 
v 0.0534823 0.0660487 1e-05 
v 0.0490152 0.069005 1e-05 
v 0.0843862 0.0634509 1e-05 
v 0.0790583 0.0644557 1e-05 
v 0.0736529 0.0648776 1e-05 
v 0.0470125 -0.0281422 1e-05 
v 0.05169 -0.0305857 1e-05 
v 0.00306791 -0.0196568 1e-05 
v 0.00790128 -0.0215499 1e-05 
v 0.0129049 -0.0229317 1e-05 
v -0.0783813 -0.0112017 1e-05 
v -0.00204825 0.0687539 1e-05 
v -0.0064861 0.0657539 1e-05 
v 0.103699 0.0539395 1e-05 
v 0.240021 0.00443459 1e-05 
v 0.0426187 -0.0252194 1e-05 
v 0.0180248 -0.0237872 1e-05 
v 0.0232058 -0.0241074 1e-05 
v 0.028392 -0.0238886 1e-05 
v 0.0335277 -0.0231334 1e-05 
v 0.0385574 -0.0218497 1e-05 
v 0.240987 0.00180409 1e-05 
v 0.237565 0.00892801 1e-05 
v 0.238882 0.00678717 1e-05 
v 0.24261 -0.00881394 1e-05 
v 0.242624 -0.01 1e-05 
v 0.241768 -0.00119247 1e-05 
v 0.242331 -0.00467548 1e-05 
v 0.122003 0.0217086 0 
v 0.20468 0.0217086 0 
v 0.211867 0.0213936 -1.69407e-21 
v 0.21751 0.0206063 0 
v 0.221848 0.0195645 0 
v 0.225339 0.0183582 0 
v 0.22822 0.0170362 0 
v 0.23065 0.015619 -1.69407e-21 
v 0.232737 0.0141095 0 
v -0.0282482 -0.0221293 0 
v -0.033438 -0.0235673 0 
v -0.0387523 -0.0244388 0 
v 0.112969 -0.0144318 0 
v 0.234291 0.0127556 0 
v 0.241768 -0.00119247 0 
v 0.242331 -0.00467548 0 
v 0.111373 0.0463008 0 
v 0.114546 0.0419038 0 
v 0.117223 0.0371892 0 
v 0.119374 0.0322123 0 
v 0.0287994 0.075629 0 
v 0.0340912 0.0747975 0 
v 0.0392636 0.0734046 0 
v -0.0343376 0.0742891 0 
v -0.0291222 0.0729467 0 
v -0.0441296 -0.0247337 0 
v -0.0495074 -0.0244485 0 
v -0.0548233 -0.0235866 0 
v 0.0335277 -0.0231334 0 
v 0.115834 -0.01 0 
v 0.109653 -0.0185369 0 
v 0.105922 -0.0222696 0 
v 0.101819 -0.0255884 0 
v 0.0774299 -0.0348618 0 
v 0.0721585 -0.0351074 0 
v 0.0668904 -0.0347961 0 
v 0.236046 0.0109077 0 
v 0.240987 0.00180409 0 
v 0.0628641 0.0639602 0 
v 0.0945608 0.059747 0 
v 0.0992877 0.0570913 0 
v 0.120974 0.0270318 0 
v 0.00268508 0.071262 0 
v 0.00765955 0.0732492 0 
v 0.0128181 0.0746929 0 
v 0.0181014 0.0755764 0 
v 0.023449 0.0758896 0 
v 0.0442574 0.0714663 0 
v 0.0490152 0.069005 0 
v -0.0450488 0.0752587 0 
v -0.0396671 0.0750627 0 
v -0.0240815 0.0710512 0 
v 0.0385574 -0.0218497 0 
v 0.028392 -0.0238886 0 
v 0.0232058 -0.0241074 0 
v 0.0180248 -0.0237872 0 
v 0.0973893 -0.0284562 0 
v 0.0926817 -0.0308412 0 
v 0.087749 -0.0327167 0 
v 0.0826462 -0.0340619 0 
v 0.237565 0.00892801 0 
v 0.24261 -0.00881394 0 
v 0.0576075 0.0626316 0 
v 0.0682336 0.0647118 0 
v 0.0736529 0.0648776 0 
v 0.0790583 0.0644557 0 
v 0.0895741 0.0618752 0 
v 0.103699 0.0539395 0 
v 0.107744 0.0503285 0 
v 0.0534823 0.0660487 0 
v -0.0705762 0.0677276 0 
v -0.0658563 0.0703208 0 
v -0.014755 0.065695 0 
v -0.0105775 0.0622964 0 
v -0.0184809 -0.0176269 0 
v -0.0232431 -0.0201415 0 
v -0.0600157 -0.022158 0 
v -0.0697911 -0.0176732 0 
v -0.0742607 -0.0146691 0 
v 0.0129049 -0.0229317 0 
v 0.00790128 -0.0215499 0 
v 0.00306791 -0.0196568 0 
v -0.00154315 -0.0172728 0 
v 0.0616846 -0.0339312 0 
v 0.05169 -0.0305857 0 
v 0.0470125 -0.0281422 0 
v 0.0426187 -0.0252194 0 
v 0.240021 0.00443459 0 
v 0.0843862 0.0634509 0 
v -0.0064861 0.0657539 0 
v -0.00204825 0.0687539 0 
v -0.0859022 0.052813 0 
v -0.0826975 0.057141 0 
v -0.0608849 0.0723914 0 
v -0.0557197 0.0739152 0 
v -0.0504205 0.0748747 0 
v -0.0192738 0.0686246 0 
v -0.0650244 -0.0201792 0 
v -0.0940753 0.0221148 0 
v -0.0941249 0.0274999 0 
v -0.00588218 -0.0144236 0 
v 0.0565989 -0.0325225 0 
v 0.238882 0.00678717 0 
v -0.0886229 0.0481654 0 
v -0.0790459 0.0610993 0 
v -0.0749898 0.0646419 0 
v -0.0783813 -0.0112017 0 
v -0.082105 -0.00731122 0 
v -0.0853887 -0.00304284 0 
v -0.0881944 0.00155396 0 
v -0.093447 0.0167662 0 
v -0.0924916 0.0381302 0 
v -0.0908279 0.0432521 0 
v -0.0140167 -0.0146147 0 
v -0.0904893 0.00642583 0 
v -0.092247 0.0115163 0 
v -0.00990244 -0.0111398 0 
v -0.0935949 0.0328591 0 
v 0.242624 -0.01 0 
o mesh0
f 1 2 3
f 3 4 1
o mesh1
f 5 6 7
f 8 9 6
f 10 11 9
f 12 13 11
f 14 15 13
f 16 17 15
f 18 19 17
f 20 21 19
f 22 23 21
f 24 25 23
f 26 27 25
f 28 29 27
f 30 31 29
f 32 33 31
f 34 35 33
f 36 37 35
f 38 39 37
f 4 3 39
f 39 38 4
f 37 36 38
f 35 34 36
f 33 32 34
f 31 30 32
f 29 28 30
f 27 26 28
f 25 24 26
f 23 22 24
f 21 20 22
f 19 18 20
f 17 16 18
f 15 14 16
f 13 12 14
f 11 10 12
f 9 8 10
f 6 5 8
f 7 40 5
o mesh2
f 7 41 42
f 42 40 7
o mesh3
f 43 44 45
f 46 43 47
f 48 46 49
f 50 48 51
f 52 50 53
f 54 52 55
f 56 54 57
f 58 56 59
f 60 58 61
f 62 60 63
f 64 62 65
f 66 64 67
f 68 66 69
f 70 68 71
f 72 70 73
f 74 72 75
f 76 74 77
f 78 76 79
f 41 78 80
f 80 42 41
f 79 80 78
f 77 79 76
f 75 77 74
f 73 75 72
f 71 73 70
f 69 71 68
f 67 69 66
f 65 67 64
f 63 65 62
f 61 63 60
f 59 61 58
f 57 59 56
f 55 57 54
f 53 55 52
f 51 53 50
f 49 51 48
f 47 49 46
f 45 47 43
o mesh4
f 81 82 83
f 84 81 85
f 86 84 87
f 88 86 89
f 90 88 91
f 92 90 93
f 94 92 95
f 96 94 97
f 98 96 99
f 100 98 101
f 44 100 102
f 102 45 44
f 101 102 100
f 99 101 98
f 97 99 96
f 95 97 94
f 93 95 92
f 91 93 90
f 89 91 88
f 87 89 86
f 85 87 84
f 83 85 81
o mesh5
f 83 82 103
f 103 104 83
o mesh6
f 105 106 107
f 108 105 109
f 110 108 111
f 112 110 113
f 114 112 115
f 116 114 117
f 118 116 119
f 120 118 121
f 122 120 123
f 124 122 125
f 126 124 127
f 128 126 129
f 130 128 131
f 132 130 133
f 134 132 135
f 136 134 137
f 138 136 139
f 140 138 141
f 142 140 143
f 144 142 145
f 146 144 147
f 148 146 149
f 150 148 151
f 152 150 153
f 154 152 155
f 156 154 157
f 158 156 159
f 160 158 161
f 162 160 163
f 164 162 165
f 166 164 167
f 168 166 169
f 170 168 171
f 172 170 173
f 174 172 175
f 176 174 177
f 178 176 179
f 180 178 181
f 182 180 183
f 184 182 185
f 186 184 187
f 188 186 189
f 190 188 191
f 103 190 192
f 192 104 103
f 191 192 190
f 189 191 188
f 187 189 186
f 185 187 184
f 183 185 182
f 181 183 180
f 179 181 178
f 177 179 176
f 175 177 174
f 173 175 172
f 171 173 170
f 169 171 168
f 167 169 166
f 165 167 164
f 163 165 162
f 161 163 160
f 159 161 158
f 157 159 156
f 155 157 154
f 153 155 152
f 151 153 150
f 149 151 148
f 147 149 146
f 145 147 144
f 143 145 142
f 141 143 140
f 139 141 138
f 137 139 136
f 135 137 134
f 133 135 132
f 131 133 130
f 129 131 128
f 127 129 126
f 125 127 124
f 123 125 122
f 121 123 120
f 119 121 118
f 117 119 116
f 115 117 114
f 113 115 112
f 111 113 110
f 109 111 108
f 107 109 105
o mesh7
f 193 194 195
f 196 193 197
f 198 196 199
f 200 198 201
f 202 200 203
f 204 202 205
f 206 204 207
f 208 206 209
f 210 208 211
f 212 210 213
f 214 212 215
f 216 214 217
f 218 216 219
f 220 218 221
f 222 220 223
f 106 222 224
f 224 107 106
f 223 224 222
f 221 223 220
f 219 221 218
f 217 219 216
f 215 217 214
f 213 215 212
f 211 213 210
f 209 211 208
f 207 209 206
f 205 207 204
f 203 205 202
f 201 203 200
f 199 201 198
f 197 199 196
f 195 197 193
o mesh8
f 225 2 1
f 226 225 227
f 228 226 229
f 230 228 231
f 232 230 233
f 234 232 235
f 236 234 237
f 238 236 239
f 240 238 241
f 242 240 243
f 244 242 245
f 246 244 247
f 248 246 249
f 250 248 251
f 252 250 253
f 254 252 255
f 256 254 257
f 258 256 259
f 194 258 260
f 260 195 194
f 259 260 258
f 257 259 256
f 255 257 254
f 253 255 252
f 251 253 250
f 249 251 248
f 247 249 246
f 245 247 244
f 243 245 242
f 241 243 240
f 239 241 238
f 237 239 236
f 235 237 234
f 233 235 232
f 231 233 230
f 229 231 228
f 227 229 226
f 1 227 225
o mesh9
f 4 261 262
f 36 263 264
f 4 38 265
f 262 227 4
f 266 267 179
f 267 268 181
f 264 38 36
f 227 1 4
f 269 270 119
f 270 271 121
f 272 266 177
f 181 179 267
f 36 34 273
f 265 261 4
f 274 275 59
f 276 269 117
f 121 119 270
f 271 277 123
f 277 278 125
f 279 280 153
f 280 281 155
f 179 177 266
f 268 282 183
f 30 28 283
f 32 30 284
f 34 32 285
f 264 265 38
f 57 286 274
f 275 287 61
f 119 117 269
f 125 123 277
f 288 289 131
f 289 290 133
f 155 153 280
f 281 291 157
f 292 293 171
f 293 294 173
f 183 181 268
f 282 295 185
f 295 296 187
f 296 297 189
f 298 207 205
f 299 209 207
f 284 285 32
f 273 263 36
f 61 59 275
f 287 300 63
f 300 301 65
f 301 302 67
f 303 304 111
f 304 305 113
f 305 276 115
f 123 121 271
f 278 306 127
f 306 288 129
f 133 131 289
f 290 307 135
f 308 309 141
f 309 310 143
f 157 155 281
f 291 311 159
f 312 313 163
f 313 314 165
f 173 171 293
f 294 272 175
f 185 183 282
f 189 187 296
f 315 203 201
f 316 205 203
f 207 298 299
f 317 211 209
f 318 213 211
f 319 215 213
f 320 217 215
f 321 219 217
f 322 323 235
f 323 324 237
f 324 325 239
f 325 326 241
f 28 26 327
f 285 273 34
f 328 55 53
f 286 57 55
f 63 61 287
f 67 65 301
f 329 330 79
f 91 331 332
f 113 111 304
f 117 115 276
f 129 127 306
f 135 133 290
f 307 333 137
f 333 308 139
f 143 141 309
f 310 334 145
f 335 279 151
f 159 157 291
f 311 312 161
f 165 163 313
f 175 173 294
f 187 185 295
f 297 336 191
f 336 337 192
f 203 315 316
f 209 299 317
f 213 318 319
f 217 320 321
f 338 231 229
f 338 322 233
f 237 235 323
f 241 239 325
f 339 340 247
f 340 341 249
f 342 343 259
f 343 344 260
f 345 327 26
f 283 284 30
f 55 328 286
f 65 63 300
f 302 346 69
f 346 347 71
f 347 348 73
f 348 349 75
f 349 329 77
f 330 80 79
f 332 350 91
f 115 113 305
f 131 129 288
f 139 137 333
f 145 143 310
f 334 351 147
f 351 335 149
f 153 151 279
f 163 161 312
f 177 175 272
f 192 191 336
f 352 199 197
f 353 201 199
f 205 316 298
f 215 319 320
f 233 231 338
f 239 237 324
f 249 247 340
f 341 354 251
f 355 356 255
f 356 342 257
f 260 259 343
f 345 24 22
f 327 283 28
f 357 51 49
f 358 53 51
f 59 57 274
f 71 69 346
f 75 73 348
f 79 77 329
f 350 359 91
f 360 361 93
f 127 125 278
f 141 139 308
f 149 147 351
f 161 159 311
f 314 362 167
f 362 292 169
f 191 189 297
f 337 331 104
f 199 352 353
f 211 317 318
f 363 221 219
f 364 223 221
f 303 224 223
f 235 233 322
f 326 365 243
f 365 339 245
f 251 249 341
f 354 355 253
f 257 255 356
f 344 195 260
f 366 12 10
f 26 24 345
f 367 49 47
f 51 357 358
f 69 67 302
f 77 75 349
f 93 91 360
f 361 368 95
f 368 369 97
f 369 370 99
f 371 372 102
f 137 135 307
f 151 149 335
f 169 167 362
f 104 192 337
f 201 353 315
f 221 363 364
f 303 107 224
f 229 262 338
f 245 243 365
f 253 251 354
f 259 257 342
f 10 373 366
f 374 20 18
f 22 374 345
f 49 367 357
f 73 71 347
f 95 93 361
f 99 97 369
f 370 371 101
f 372 45 102
f 331 91 89
f 147 145 334
f 171 169 292
f 197 344 352
f 223 364 303
f 243 241 326
f 255 253 355
f 366 14 12
f 375 16 14
f 22 20 374
f 40 42 80
f 53 358 328
f 97 95 368
f 102 101 371
f 331 85 83
f 89 87 331
f 167 165 314
f 219 321 363
f 247 245 339
f 14 366 375
f 18 375 374
f 330 376 40
f 47 372 367
f 101 99 370
f 87 85 331
f 111 109 303
f 229 227 262
f 18 16 375
f 330 377 376
f 359 360 91
f 109 107 303
f 10 8 373
f 378 5 40
f 47 45 372
f 197 195 344
f 40 376 379
f 373 8 5
f 83 104 331
f 5 378 373
f 40 379 378
f 80 330 40
o mesh10
f 3 225 380
f 3 2 225
f 3 381 382
f 37 39 383
f 382 39 3
f 39 382 383
f 383 384 37
f 37 384 385
f 385 35 37
f 35 385 386
f 33 386 387
f 31 387 388
f 389 184 186
f 390 182 184
f 386 33 35
f 388 29 31
f 184 389 390
f 391 180 182
f 392 74 76
f 387 31 33
f 29 388 393
f 394 395 7
f 396 236 238
f 397 234 236
f 398 232 234
f 399 230 232
f 400 401 204
f 401 402 202
f 403 116 118
f 404 114 116
f 182 390 391
f 405 178 180
f 406 176 178
f 407 174 176
f 408 98 100
f 76 409 392
f 410 72 74
f 411 70 72
f 412 68 70
f 413 58 60
f 414 56 58
f 415 54 56
f 393 27 29
f 416 25 27
f 417 394 6
f 7 6 394
f 418 256 258
f 419 244 246
f 420 242 244
f 236 396 397
f 232 398 399
f 421 228 230
f 421 380 226
f 422 423 214
f 423 424 212
f 424 425 210
f 425 426 208
f 426 400 206
f 202 204 401
f 402 427 200
f 427 428 198
f 429 120 122
f 430 118 120
f 116 403 404
f 431 112 114
f 180 391 405
f 176 406 407
f 100 432 408
f 433 96 98
f 434 94 96
f 435 92 94
f 74 392 410
f 70 411 412
f 436 66 68
f 437 64 66
f 438 62 64
f 439 60 62
f 58 413 414
f 56 414 415
f 27 393 416
f 416 440 23
f 395 441 7
f 258 442 418
f 443 254 256
f 444 252 254
f 445 250 252
f 446 246 248
f 244 419 420
f 447 240 242
f 448 238 240
f 234 397 398
f 226 228 421
f 212 214 423
f 208 210 425
f 204 206 400
f 198 200 427
f 428 449 196
f 449 442 193
f 450 130 132
f 451 128 130
f 120 429 430
f 114 404 431
f 452 108 110
f 453 105 108
f 454 188 190
f 455 186 188
f 178 405 406
f 456 172 174
f 457 168 170
f 458 166 168
f 98 408 433
f 94 434 435
f 459 90 92
f 460 88 90
f 461 86 88
f 462 84 86
f 72 410 411
f 66 436 437
f 62 438 439
f 415 463 54
f 464 465 48
f 465 466 46
f 23 25 416
f 467 417 11
f 6 9 417
f 256 418 443
f 252 444 445
f 468 248 250
f 246 446 419
f 240 447 448
f 230 399 421
f 453 469 220
f 469 470 218
f 470 422 216
f 210 212 424
f 200 202 402
f 193 196 449
f 471 138 140
f 472 136 138
f 130 450 451
f 473 126 128
f 474 124 126
f 475 122 124
f 118 430 403
f 476 110 112
f 108 452 453
f 188 454 455
f 174 407 456
f 477 170 172
f 168 457 458
f 478 150 152
f 479 148 150
f 96 433 434
f 90 459 460
f 86 461 462
f 480 81 84
f 68 412 436
f 60 439 413
f 463 481 52
f 481 464 50
f 46 48 465
f 466 432 43
f 440 21 23
f 440 482 19
f 9 11 417
f 254 443 444
f 248 468 446
f 238 448 396
f 220 222 453
f 216 218 470
f 206 208 426
f 442 194 193
f 483 140 142
f 138 471 472
f 484 134 136
f 485 132 134
f 128 451 473
f 124 474 475
f 112 431 476
f 453 106 105
f 186 455 389
f 170 477 457
f 486 164 166
f 487 162 164
f 488 160 162
f 489 158 160
f 490 152 154
f 150 478 479
f 92 435 459
f 84 462 480
f 64 437 438
f 50 52 481
f 43 46 466
f 19 21 440
f 482 467 15
f 11 13 467
f 250 445 468
f 380 225 226
f 218 220 469
f 196 198 428
f 491 144 146
f 492 142 144
f 140 483 471
f 134 484 485
f 126 473 474
f 110 476 452
f 493 190 103
f 172 456 477
f 164 486 487
f 160 488 489
f 494 156 158
f 495 154 156
f 152 490 478
f 88 460 461
f 480 496 82
f 52 54 463
f 432 44 43
f 7 409 78
f 482 17 19
f 13 15 467
f 242 420 447
f 214 216 422
f 497 146 148
f 144 491 492
f 136 472 484
f 122 475 429
f 103 82 496
f 166 458 486
f 158 489 494
f 154 495 490
f 82 81 480
f 48 50 464
f 78 41 7
f 15 17 482
f 222 106 453
f 146 497 491
f 132 485 450
f 190 493 454
f 156 494 495
f 76 78 409
f 7 441 409
f 258 194 442
f 142 492 483
f 162 487 488
f 441 498 409
f 148 479 497
f 100 44 432
f 103 496 493
f 380 381 3
o mesh11
f 496 331 337
f 493 337 336
f 454 336 297
f 455 297 296
f 389 296 295
f 390 295 282
f 391 282 268
f 405 268 267
f 406 267 266
f 407 266 272
f 456 272 294
f 477 294 293
f 457 293 292
f 458 292 362
f 486 362 314
f 487 314 313
f 488 313 312
f 489 312 311
f 494 311 291
f 495 291 281
f 490 281 280
f 478 280 279
f 479 279 335
f 497 335 351
f 491 351 334
f 492 334 310
f 483 310 309
f 471 309 308
f 472 308 333
f 484 333 307
f 485 307 290
f 450 290 289
f 451 289 288
f 473 288 306
f 474 306 278
f 475 278 277
f 429 277 271
f 430 271 270
f 403 270 269
f 404 269 276
f 431 276 305
f 476 305 304
f 452 304 303
f 303 453 452
f 304 452 476
f 305 476 431
f 276 431 404
f 269 404 403
f 270 403 430
f 271 430 429
f 277 429 475
f 278 475 474
f 306 474 473
f 288 473 451
f 289 451 450
f 290 450 485
f 307 485 484
f 333 484 472
f 308 472 471
f 309 471 483
f 310 483 492
f 334 492 491
f 351 491 497
f 335 497 479
f 279 479 478
f 280 478 490
f 281 490 495
f 291 495 494
f 311 494 489
f 312 489 488
f 313 488 487
f 314 487 486
f 362 486 458
f 292 458 457
f 293 457 477
f 294 477 456
f 272 456 407
f 266 407 406
f 267 406 405
f 268 405 391
f 282 391 390
f 295 390 389
f 296 389 455
f 297 455 454
f 336 454 493
f 337 493 496
o mesh12
f 432 372 371
f 408 371 370
f 433 370 369
f 434 369 368
f 435 368 361
f 459 361 360
f 460 360 359
f 461 359 350
f 462 350 332
f 480 332 331
f 331 496 480
f 332 480 462
f 350 462 461
f 359 461 460
f 360 460 459
f 361 459 435
f 368 435 434
f 369 434 433
f 370 433 408
f 371 408 432
o mesh13
f 409 330 329
f 392 329 349
f 410 349 348
f 411 348 347
f 412 347 346
f 436 346 302
f 437 302 301
f 438 301 300
f 439 300 287
f 413 287 275
f 414 275 274
f 415 274 286
f 463 286 328
f 481 328 358
f 464 358 357
f 465 357 367
f 466 367 372
f 372 432 466
f 367 466 465
f 357 465 464
f 358 464 481
f 328 481 463
f 286 463 415
f 274 415 414
f 275 414 413
f 287 413 439
f 300 439 438
f 301 438 437
f 302 437 436
f 346 436 412
f 347 412 411
f 348 411 410
f 349 410 392
f 329 392 409
o mesh14
f 330 409 498
f 498 377 330
o mesh15
f 265 382 381
f 264 383 382
f 263 384 383
f 273 385 384
f 285 386 385
f 284 387 386
f 283 388 387
f 327 393 388
f 345 416 393
f 374 440 416
f 375 482 440
f 366 467 482
f 373 417 467
f 378 394 417
f 379 395 394
f 376 441 395
f 377 498 441
f 441 376 377
f 395 379 376
f 394 378 379
f 417 373 378
f 467 366 373
f 482 375 366
f 440 374 375
f 416 345 374
f 393 327 345
f 388 283 327
f 387 284 283
f 386 285 284
f 385 273 285
f 384 263 273
f 383 264 263
f 382 265 264
f 381 261 265
o mesh16
f 261 381 380
f 380 262 261
o mesh17
f 442 344 343
f 418 343 342
f 443 342 356
f 444 356 355
f 445 355 354
f 468 354 341
f 446 341 340
f 419 340 339
f 420 339 365
f 447 365 326
f 448 326 325
f 396 325 324
f 397 324 323
f 398 323 322
f 399 322 338
f 421 338 262
f 262 380 421
f 338 421 399
f 322 399 398
f 323 398 397
f 324 397 396
f 325 396 448
f 326 448 447
f 365 447 420
f 339 420 419
f 340 419 446
f 341 446 468
f 354 468 445
f 355 445 444
f 356 444 443
f 342 443 418
f 343 418 442
o mesh18
f 453 303 364
f 469 364 363
f 470 363 321
f 422 321 320
f 423 320 319
f 424 319 318
f 425 318 317
f 426 317 299
f 400 299 298
f 401 298 316
f 402 316 315
f 427 315 353
f 428 353 352
f 449 352 344
f 344 442 449
f 352 449 428
f 353 428 427
f 315 427 402
f 316 402 401
f 298 401 400
f 299 400 426
f 317 426 425
f 318 425 424
f 319 424 423
f 320 423 422
f 321 422 470
f 363 470 469
f 364 469 453
