# OBJ generated by ONSHAPE BY PTC INC, 1.204 Units = meters
mtllib Swing_Track.mtl
g Swing_Track
v 0.0608453 -0.0174186 0.0002 
v 0.0605413 -0.0166651 0.0002 
v 0.0605413 -0.0166651 2.1684e-19 
v 0.0600941 -0.0158023 0.0002 
v 0.0600941 -0.0158023 2.1684e-19 
v 0.0594426 -0.0147932 0.0002 
v 0.0594426 -0.0147932 2.1684e-19 
v 0.0583249 -0.0133703 0.0002 
v 0.0583249 -0.0133703 2.1684e-19 
v 0.0562879 -0.0111521 0.0002 
v 0.0562879 -0.0111521 2.71051e-19 
v 0.0521549 -0.00675608 0.0002 
v 0.0521549 -0.00675608 2.1684e-19 
v 0.0498698 -0.00386096 0.0002 
v 0.0498698 -0.00386096 2.1684e-19 
v 0.0483435 -0.00146753 0.0002 
v 0.0483435 -0.00146753 2.1684e-19 
v 0.0471243 0.000939211 0.0002 
v 0.0471243 0.000939211 2.1684e-19 
v 0.0461067 0.00355714 0.0002 
v 0.0461067 0.00355714 2.1684e-19 
v 0.0451275 0.00703067 0.0002 
v 0.0451275 0.00703067 2.1684e-19 
v 0.0438496 0.0130035 0.0002 
v 0.0438496 0.0130035 2.43945e-19 
v 0.0429109 0.0164841 0.0002 
v 0.0429109 0.0164841 2.43945e-19 
v 0.0421386 0.0185469 0.0002 
v 0.0421386 0.0185469 2.43945e-19 
v 0.0412286 0.0204296 0.0002 
v 0.0412286 0.0204296 2.71051e-19 
v 0.0401109 0.0222585 0.0002 
v 0.0401109 0.0222585 2.43945e-19 
v 0.0395081 0.0230991 0.0002 
v 0.0395081 0.0230991 2.71051e-19 
v 0.0379086 0.0249998 0.0002 
v 0.0379086 0.0249998 2.1684e-19 
v 0.0360359 0.0268124 0.0002 
v 0.0360359 0.0268124 2.1684e-19 
v 0.0336458 0.0287096 0.0002 
v 0.0336458 0.0287096 2.1684e-19 
v 0.030569 0.0306948 0.0002 
v 0.030569 0.0306948 2.1684e-19 
v 0.0265966 0.0327396 0.0002 
v 0.0265966 0.0327396 2.71051e-19 
v 0.0211177 0.0348921 0.0002 
v 0.0211177 0.0348921 2.71051e-19 
v 0.0149 0.0366495 0.0002 
v 0.0149 0.0366495 2.1684e-19 
v 0.00838878 0.0378782 0.0002 
v 0.00838878 0.0378782 2.43945e-19 
v 0.00124456 0.038616 0.0002 
v 0.00124456 0.038616 2.43945e-19 
v -0.00608487 0.0387693 0.0002 
v -0.00608487 0.0387693 2.43945e-19 
v -0.0134246 0.03833 0.0002 
v -0.0134246 0.03833 2.1684e-19 
v -0.0206356 0.0373082 0.0002 
v -0.0206356 0.0373082 2.43945e-19 
v -0.0276237 0.0357228 0.0002 
v -0.0276237 0.0357228 2.71051e-19 
v -0.0343425 0.0335885 0.0002 
v -0.0343425 0.0335885 2.71051e-19 
v -0.0407832 0.0309076 0.0002 
v -0.0407832 0.0309076 2.71051e-19 
v -0.047281 0.0274787 0.0002 
v -0.047281 0.0274787 0 
v 0.0608453 -0.0174186 0 
v -0.0492053 0.0245246 0.0002 
v -0.0492053 0.0245246 3.25261e-19 
v -0.0522504 0.019132 0.0002 
v -0.0522504 0.019132 3.52366e-19 
v -0.0542469 0.0146631 0.0002 
v -0.0542469 0.0146631 3.25261e-19 
v -0.0551253 0.0120527 0.0002 
v -0.0551253 0.0120527 2.98156e-19 
v -0.0555797 0.0101645 0.0002 
v -0.0555797 0.0101645 3.52366e-19 
v -0.0557466 0.00910581 0.0002 
v -0.0557466 0.00910581 2.98156e-19 
v -0.0558309 0.00801416 0.0002 
v -0.0558309 0.00801416 2.98156e-19 
v -0.055817 0.00719021 0.0002 
v -0.055817 0.00719021 2.98156e-19 
v -0.0557444 0.00655056 3.52366e-19 
v -0.0556332 0.00603495 0.0002 
v -0.0556332 0.00603495 3.52366e-19 
v -0.0554915 0.00560039 0.0002 
v -0.0554915 0.00560039 3.25261e-19 
v -0.0553161 0.00520878 0.0002 
v -0.0553161 0.00520878 2.98156e-19 
v -0.0551164 0.00486297 0.0002 
v -0.0551164 0.00486297 2.98156e-19 
v -0.0548553 0.0044988 0.0002 
v -0.0548553 0.0044988 2.98156e-19 
v -0.0544942 0.00408724 0.0002 
v -0.0544942 0.00408724 3.25261e-19 
v -0.0542413 0.00383833 0.0002 
v -0.0542413 0.00383833 3.25261e-19 
v -0.0535504 0.0032556 0.0002 
v -0.0535504 0.0032556 3.25261e-19 
v -0.0525215 0.0025379 0.0002 
v -0.0525215 0.0025379 3.52366e-19 
v -0.0510212 0.00165366 0.0002 
v -0.0510212 0.00165366 2.98156e-19 
v -0.0487354 0.000472152 0.0002 
v -0.0487354 0.000472152 3.25261e-19 
v -0.0408498 -0.00344884 0.0002 
v -0.0408498 -0.00344884 3.25261e-19 
v -0.0340736 -0.00743203 0.0002 
v -0.0340736 -0.00743203 2.98156e-19 
v -0.0277034 -0.0119009 0.0002 
v -0.0277034 -0.0119009 3.52366e-19 
v -0.0181569 -0.019495 0.0002 
v -0.0181569 -0.019495 2.98156e-19 
v -0.00859865 -0.0271017 0.0002 
v -0.00859865 -0.0271017 3.52366e-19 
v -0.00172296 -0.0320347 0.0002 
v -0.00172296 -0.0320347 3.52366e-19 
v 0.00508873 -0.0362967 0.0002 
v 0.00508873 -0.0362967 3.25261e-19 
v 0.0119659 -0.0399255 0.0002 
v 0.0119659 -0.0399255 2.98156e-19 
v 0.0189567 -0.0429182 0.0002 
v 0.0189567 -0.0429182 3.25261e-19 
v 0.0257916 -0.0451686 0.0002 
v 0.0257916 -0.0451686 3.52366e-19 
v 0.0324023 -0.0466947 0.0002 
v 0.0324023 -0.0466947 3.25261e-19 
v 0.0381474 -0.0474625 0.0002 
v 0.0381474 -0.0474625 2.98156e-19 
v 0.0428596 -0.0476498 0.0002 
v 0.0428596 -0.0476498 3.52366e-19 
v 0.0469536 -0.0474192 0.0002 
v 0.0469536 -0.0474192 3.25261e-19 
v 0.0498351 -0.046976 0.0002 
v 0.0498351 -0.046976 3.52366e-19 
v 0.052082 -0.0464154 0.0002 
v 0.052082 -0.0464154 2.98156e-19 
v 0.0537918 -0.0458157 0.0002 
v 0.0537918 -0.0458157 2.98156e-19 
v 0.0550987 -0.0452163 0.0002 
v 0.0550987 -0.0452163 2.98156e-19 
v 0.0561007 -0.0446361 0.0002 
v 0.0561007 -0.0446361 3.25261e-19 
v 0.0568685 -0.044087 0.0002 
v 0.0568685 -0.044087 2.98156e-19 
v 0.0574597 -0.0435705 3.52366e-19 
v 0.0579207 -0.043079 0.0002 
v 0.0579207 -0.043079 2.98156e-19 
v 0.0582423 -0.0426634 3.52366e-19 
v 0.0585408 -0.0421891 0.0002 
v 0.0585408 -0.0421891 2.98156e-19 
v 0.0587871 -0.041687 3.52366e-19 
v 0.0589695 -0.0411913 0.0002 
v 0.0589695 -0.0411913 2.98156e-19 
v 0.0591142 -0.0406338 3.52366e-19 
v 0.0592197 -0.0399642 0.0002 
v 0.0592197 -0.0399642 2.98156e-19 
v 0.0592698 -0.0391171 3.52366e-19 
v 0.0592302 -0.0379865 0.0002 
v 0.0592302 -0.0379865 2.98156e-19 
v 0.0590312 -0.0363619 0.0002 
v 0.0590312 -0.0363619 3.25261e-19 
v 0.057951 -0.0307725 0.0002 
v 0.057951 -0.0307725 3.52366e-19 
v 0.0576111 -0.0281143 0.0002 
v 0.0576111 -0.0281143 2.98156e-19 
v 0.0575576 -0.0261682 0.0002 
v 0.0575576 -0.0261682 2.98156e-19 
v 0.0576561 -0.0247344 0.0002 
v 0.0576561 -0.0247344 3.52366e-19 
v 0.0578705 -0.0234047 0.0002 
v 0.0578705 -0.0234047 3.52366e-19 
v 0.0582006 -0.0221361 0.0002 
v 0.0582006 -0.0221361 3.52366e-19 
v 0.0586522 -0.0209112 0.0002 
v 0.0586522 -0.0209112 3.52366e-19 
v 0.0592303 -0.0197245 0.0002 
v 0.0592303 -0.0197245 3.52366e-19 
v 0.0599659 -0.0185455 0.0002 
v 0.0599659 -0.0185455 2.98156e-19 
v 0.0592698 -0.0391171 0.0002 
v 0.0591142 -0.0406338 0.0002 
v 0.0587871 -0.041687 0.0002 
v 0.0582423 -0.0426634 0.0002 
v 0.0574597 -0.0435705 0.0002 
v -0.0557444 0.00655056 0.0002 
v -0.0265399 -0.0191346 0.0002 
v -0.0169887 -0.0268841 0.0002 
v -0.00847496 -0.0334165 0.0002 
v -0.0331878 -0.0140809 0.0002 
v -0.00154048 -0.0381267 0.0002 
v 0.00542953 -0.0422112 0.0002 
v -0.0512968 -0.00383839 0.0002 
v -0.0459565 -0.00644555 0.0002 
v -0.0396594 -0.00985053 0.0002 
v 0.0126505 -0.04574 0.0002 
v -0.0545725 -0.00207284 0.0002 
v 0.0197337 -0.048514 0.0002 
v -0.0564977 -0.000785068 0.0002 
v -0.0583342 0.000874443 0.0002 
v -0.0575354 7.44848e-05 0.0002 
v 0.0267134 -0.0505836 0.0002 
v 0.0630032 -0.0235333 0.0002 
v 0.0629051 -0.0300773 0.0002 
v 0.0626096 -0.0278934 0.0002 
v 0.0638092 -0.0346469 0.0002 
v -0.00142044 0.0437431 0.0002 
v -0.00897793 0.0436733 0.0002 
v -0.0164851 0.0430125 0.0002 
v 0.0334346 -0.0519348 0.0002 
v 0.0482467 -0.0523007 0.0002 
v 0.0514417 -0.0517461 0.0002 
v 0.0540508 -0.0510385 0.0002 
v 0.0570986 -0.0498082 0.0002 
v 0.0629513 -0.0236981 0.0002 
v 0.062745 -0.0245239 0.0002 
v 0.0626122 -0.0254076 0.0002 
v 0.0625537 -0.0264098 0.0002 
v 0.064173 -0.0371254 0.0002 
v -0.02383 0.041775 0.0002 
v 0.0393536 -0.0525603 0.0002 
v 0.0442623 -0.0526202 0.0002 
v 0.0552917 -0.0505996 0.0002 
v 0.0642702 -0.0391115 0.0002 
v 0.00603809 0.0432202 0.0002 
v 0.0585663 -0.0489928 0.0002 
v 0.0641971 -0.0404423 0.0002 
v -0.0309412 0.0399778 0.0002 
v -0.0608042 0.00869436 0.0002 
v 0.0597694 -0.0481649 0.0002 
v 0.0132216 0.0421232 0.0002 
v -0.0601267 0.0127157 0.0002 
v -0.0605835 0.0105862 0.0002 
v 0.0640206 -0.0415978 0.0002 
v 0.0502074 0.00731823 0.0002 
v 0.0484652 0.0152126 0.0002 
v -0.0377867 0.0376314 0.0002 
v 0.0567812 -0.00443159 0.0002 
v -0.0507803 0.0312113 0.0002 
v -0.0545695 0.0253126 0.0002 
v -0.0573822 0.0200198 0.0002 
v -0.0592677 0.0154984 0.0002 
v 0.0607646 -0.0473269 0.0002 
v 0.0622919 -0.0455964 0.0002 
v 0.0637569 -0.0426343 0.0002 
v 0.0632906 -0.0227811 0.0002 
v 0.0502304 0.00722967 0.0002 
v 0.0510489 0.0045688 0.0002 
v -0.0443715 0.0347297 0.0002 
v 0.0544352 -0.00163625 0.0002 
v 0.0613784 -0.00927158 0.0002 
v -0.0608281 0.0073125 0.0002 
v -0.0589636 0.00164062 0.0002 
v 0.0615942 -0.0464749 0.0002 
v 0.0634106 -0.0435908 0.0002 
v 0.0474222 0.0187476 0.0002 
v 0.0464508 0.0211577 0.0002 
v 0.0452588 0.0234622 0.0002 
v 0.035307 0.0336375 0.0002 
v 0.03149 0.035901 0.0002 
v 0.0261536 0.0383664 0.0002 
v 0.020069 0.0404606 0.0002 
v 0.0654199 -0.0153735 0.0002 
v 0.0648597 -0.0141087 0.0002 
v 0.066167 -0.0181277 0.0002 
v 0.0658431 -0.0166562 0.0002 
v 0.0631111 -0.0113423 0.0002 
v -0.0595087 0.00246163 0.0002 
v 0.0623635 -0.0454947 0.0002 
v 0.0629355 -0.0445742 0.0002 
v 0.0445354 0.0246357 0.0002 
v 0.0428751 0.0269081 0.0002 
v 0.0383338 0.0314163 0.0002 
v 0.064112 -0.0127844 0.0002 
v -0.0607355 0.00613097 0.0002 
v 0.0519255 0.00246662 0.0002 
v 0.0407537 0.0292457 0.0002 
v -0.0605496 0.00508827 0.0002 
v -0.0599201 0.00324423 0.0002 
v 0.0636585 -0.0220503 0.0002 
v 0.0530892 0.000330544 0.0002 
v 0.0653942 -0.0199036 0.0002 
v 0.0663034 -0.0191562 0.0002 
v -0.060279 0.00413807 0.0002 
v 0.0647218 -0.020582 0.0002 
v 0.0641259 -0.0213221 0.0002 
v -0.00847496 -0.0334165 0 
v -0.0169887 -0.0268841 0 
v -0.0265399 -0.0191346 -2.71051e-20 
v -0.0459565 -0.00644555 0 
v -0.0512968 -0.00383839 0 
v -0.0545725 -0.00207284 0 
v -0.00154048 -0.0381267 0 
v -0.0331878 -0.0140809 0 
v -0.0396594 -0.00985053 2.71051e-20 
v 0.00542953 -0.0422112 0 
v -0.0564977 -0.000785068 0 
v 0.0126505 -0.04574 0 
v -0.00897793 0.0436733 0 
v -0.00142044 0.0437431 0 
v 0.0629051 -0.0300773 0 
v 0.0638092 -0.0346469 0 
v 0.0626096 -0.0278934 0 
v 0.0632906 -0.0227811 0 
v 0.0630032 -0.0235333 0 
v 0.0197337 -0.048514 0 
v -0.0575354 7.44848e-05 0 
v -0.0583342 0.000874443 0 
v -0.0589636 0.00164062 0 
v -0.0164851 0.0430125 0 
v 0.064173 -0.0371254 2.71051e-20 
v 0.0626122 -0.0254076 0 
v 0.062745 -0.0245239 0 
v 0.0629513 -0.0236981 0 
v 0.0570986 -0.0498082 0 
v 0.0552917 -0.0505996 -2.71051e-20 
v 0.0540508 -0.0510385 0 
v 0.0514417 -0.0517461 2.71051e-20 
v 0.0482467 -0.0523007 -2.71051e-20 
v 0.0267134 -0.0505836 -2.71051e-20 
v 0.00603809 0.0432202 -2.71051e-20 
v 0.0642702 -0.0391115 -2.71051e-20 
v 0.0393536 -0.0525603 -2.71051e-20 
v 0.0334346 -0.0519348 2.71051e-20 
v -0.02383 0.041775 -2.71051e-20 
v 0.0641971 -0.0404423 2.71051e-20 
v 0.0625537 -0.0264098 0 
v 0.0585663 -0.0489928 -2.71051e-20 
v 0.0132216 0.0421232 -2.71051e-20 
v 0.0597694 -0.0481649 0 
v 0.0442623 -0.0526202 0 
v 0.0567812 -0.00443159 -2.71051e-20 
v 0.0613784 -0.00927158 0 
v -0.0309412 0.0399778 0 
v 0.0502074 0.00731823 2.71051e-20 
v 0.0640206 -0.0415978 5.42101e-20 
v 0.0544352 -0.00163625 0 
v -0.0377867 0.0376314 0 
v 0.0502304 0.00722967 2.71051e-20 
v 0.0484652 0.0152126 0 
v 0.0637569 -0.0426343 0 
v 0.0622919 -0.0455964 0 
v 0.0615942 -0.0464749 0 
v 0.0607646 -0.0473269 0 
v 0.0631111 -0.0113423 2.71051e-20 
v 0.0654199 -0.0153735 2.71051e-20 
v 0.0658431 -0.0166562 0 
v 0.020069 0.0404606 0 
v 0.03149 0.035901 -2.71051e-20 
v 0.035307 0.0336375 0 
v 0.0464508 0.0211577 0 
v 0.0474222 0.0187476 -2.71051e-20 
v 0.0634106 -0.0435908 8.13152e-20 
v 0.0623635 -0.0454947 0 
v -0.0595087 0.00246163 0 
v 0.064112 -0.0127844 0 
v 0.0648597 -0.0141087 0 
v -0.0443715 0.0347297 0 
v 0.0383338 0.0314163 0 
v 0.0445354 0.0246357 2.71051e-20 
v 0.0452588 0.0234622 2.71051e-20 
v 0.0510489 0.0045688 0 
v 0.0636585 -0.0220503 0 
v -0.0599201 0.00324423 0 
v -0.0608042 0.00869436 0 
v -0.0605835 0.0105862 0 
v 0.066167 -0.0181277 0 
v 0.0261536 0.0383664 -2.71051e-20 
v 0.0407537 0.0292457 0 
v 0.0428751 0.0269081 -2.71051e-20 
v 0.0629355 -0.0445742 0 
v -0.0607355 0.00613097 0 
v -0.0608281 0.0073125 0 
v -0.0601267 0.0127157 0 
v -0.0545695 0.0253126 0 
v -0.0507803 0.0312113 0 
v 0.0530892 0.000330544 2.71051e-20 
v 0.0641259 -0.0213221 0 
v -0.060279 0.00413807 -2.71051e-20 
v -0.0605496 0.00508827 0 
v -0.0592677 0.0154984 0 
v -0.0573822 0.0200198 0 
v 0.0519255 0.00246662 2.71051e-20 
v 0.0663034 -0.0191562 0 
v 0.0647218 -0.020582 0 
v 0.0653942 -0.0199036 0 
vn -0.943532 -0.331283 0 
vn -0.909642 -0.415393 0 
vn -0.865425 -0.501039 0 
vn -0.81566 -0.578532 0 
vn -0.761231 -0.648481 0 
vn -0.720651 -0.693298 0 
vn -0.755362 -0.655308 0 
vn -0.816648 -0.577136 0 
vn -0.868891 -0.495003 0 
vn -0.913293 -0.407303 0 
vn -0.94796 -0.318391 0 
vn -0.972882 -0.231304 0 
vn -0.975317 -0.220807 0 
vn -0.950481 -0.310782 0 
vn -0.919712 -0.392594 0 
vn -0.878378 -0.477967 0 
vn -0.826224 -0.563342 0 
vn -0.798731 -0.601688 0 
vn -0.730637 -0.682766 0 
vn -0.66032 -0.750985 0 
vn -0.583831 -0.811875 0 
vn -0.501912 -0.864918 0 
vn -0.415301 -0.909684 0 
vn -0.318426 -0.947948 0 
vn -0.227456 -0.973788 0 
vn -0.144596 -0.989491 0 
vn -0.0616322 -0.998099 0 
vn 0.0195059 -0.99981 0 
vn 0.100017 -0.994986 0 
vn 0.180721 -0.983534 0 
vn 0.261966 -0.965077 0 
vn 0.343566 -0.939128 0 
vn 0.424664 -0.905351 0 
vn 0.507722 -0.861521 0 
vn -0.943532 -0.331283 0 
vn 0.826513 -0.562918 0 
vn 0.849321 -0.527876 0 
vn 0.89272 -0.450612 0 
vn 0.933958 -0.357383 0 
vn 0.961587 -0.274501 0 
vn 0.982218 -0.187745 0 
vn 0.992708 -0.12054 0 
vn 0.999601 -0.0282428 0 
vn 0.997799 0.0663156 0 
vn 0.986594 0.163195 0 
vn 0.965172 0.261617 0 
vn 0.933062 0.359715 0 
vn 0.889691 0.456563 0 
vn 0.84068 0.541532 0 
vn 0.783985 0.620779 0 
vn 0.720125 0.693845 0 
vn 0.683429 0.730017 0 
vn 0.609812 0.792546 0 
vn 0.539157 0.842205 0 
vn 0.481749 0.876309 0 
vn 0.443361 0.896343 0 
vn 0.469978 0.882678 0 
vn 0.543625 0.839328 0 
vn 0.600742 0.799443 0 
vn 0.632653 0.774436 0 
vn 0.604173 0.796853 0 
vn 0.558437 0.829547 0 
vn 0.499844 0.866115 0 
vn 0.431296 0.902211 0 
vn 0.3537 0.935359 0 
vn 0.26964 0.962961 0 
vn 0.177721 0.984081 0 
vn 0.0843614 0.996435 0 
vn -0.00809676 0.999967 0 
vn -0.108591 0.994087 0 
vn -0.198605 0.98008 0 
vn -0.288877 0.957366 0 
vn -0.375764 0.926715 0 
vn -0.460809 0.887499 0 
vn -0.543205 0.8396 0 
vn -0.621525 0.783395 0 
vn -0.695148 0.718867 0 
vn -0.763517 0.645788 0 
vn -0.817844 0.57544 0 
vn -0.872798 0.488081 0 
vn -0.920332 0.391139 0 
vn -0.95415 0.29933 0 
vn -0.978779 0.204918 0 
vn -0.994043 0.108989 0 
vn -0.999907 0.0136365 0 
vn -0.996993 -0.0774941 0 
vn -0.987587 -0.157072 0 
vn -0.985675 -0.168657 0 
vn -0.99713 -0.075711 0 
vn -0.999693 0.0247571 0 
vn -0.993476 0.114041 0 
vn -0.978704 0.205274 0 
vn -0.954317 0.298797 0 
vn -0.91996 0.392011 0 
vn -0.875515 0.483191 0 
vn -0.819437 0.57317 0 
vn -0.755622 0.655008 0 
vn -0.999907 0.0136365 0 
vn -0.978779 0.204918 0 
vn -0.920332 0.391139 0 
vn -0.817844 0.57544 0 
vn -0.695148 0.718867 0 
vn 0.986594 0.163195 0 
vn 0.826513 -0.562918 0 
vn 0 0 1 
vn 0 0 -1 
vn -0.442243 0.896895 0 
vn -0.519218 0.854642 0 
vn -0.363788 0.931482 0 
vn -0.28462 0.95864 0 
vn -0.205553 0.978646 0 
vn -0.126906 0.991915 0 
vn -0.0485179 0.998822 0 
vn 0.0301988 0.999544 0 
vn 0.110197 0.99391 0 
vn 0.192697 0.981258 0 
vn 0.280711 0.959792 0 
vn 0.372057 0.92821 0 
vn 0.468811 0.883298 0 
vn 0.552621 0.833433 0 
vn 0.631311 0.77553 0 
vn 0.704111 0.71009 0 
vn 0.776076 0.630639 0 
vn 0.837226 0.546858 0 
vn 0.864661 0.502356 0 
vn 0.909392 0.415941 0 
vn 0.943001 0.332791 0 
vn 0.970828 0.239779 0 
vn 0.968052 0.250748 0 
vn 0.96747 0.252987 0 
vn 0.940211 0.340593 0 
vn 0.902792 0.430078 0 
vn 0.851384 0.524543 0 
vn 0.79912 0.601172 0 
vn 0.737783 0.675038 0 
vn 0.741681 0.670753 0 
vn 0.796865 0.604158 0 
vn 0.847016 0.531567 0 
vn 0.893811 0.448443 0 
vn 0.933151 0.359485 0 
vn 0.963851 0.266442 0 
vn 0.986395 0.16439 0 
vn 0.995037 0.0995041 0 
vn -0.519218 0.854642 0 
vn 0.675654 -0.737219 0 
vn 0.594843 -0.803842 0 
vn 0.744458 -0.66767 0 
vn 0.812132 -0.583474 0 
vn 0.869034 -0.494752 0 
vn 0.915103 -0.40322 0 
vn 0.950672 -0.310197 0 
vn 0.95693 -0.29032 0 
vn 0.980772 -0.195157 0 
vn 0.994603 -0.10375 0 
vn 0.999881 -0.0154563 0 
vn 0.996413 0.084619 0 
vn 0.985006 0.17252 0 
vn 0.983584 0.180453 0 
vn 0.995008 0.0997974 0 
vn 0.999961 -0.00878666 0 
vn 0.9946 -0.103781 0 
vn 0.979872 -0.199627 0 
vn 0.955746 -0.294192 0 
vn 0.922399 -0.386239 0 
vn 0.875871 -0.482545 0 
vn 0.820858 -0.571132 0 
vn 0.814122 -0.580694 0 
vn 0.750801 -0.660528 0 
vn 0.681436 -0.731878 0 
vn 0.606745 -0.794897 0 
vn 0.527609 -0.849488 0 
vn 0.444848 -0.895606 0 
vn 0.359205 -0.933259 0 
vn 0.308449 -0.951241 0 
vn 0.2176 -0.976038 0 
vn 0.12724 -0.991872 0 
vn 0.0355893 -0.999367 0 
vn -0.0570257 -0.998373 0 
vn -0.150335 -0.988635 0 
vn -0.241354 -0.970437 0 
vn -0.325176 -0.945653 0 
vn -0.402342 -0.915489 0 
vn -0.47388 -0.88059 0 
vn -0.535232 -0.844705 0 
vn -0.585932 -0.81036 0 
vn -0.626099 -0.779744 0 
vn -0.623553 -0.781781 0 
vn -0.580366 -0.814356 0 
vn -0.509989 -0.860181 0 
vn -0.4457 -0.895182 0 
vn -0.446522 -0.894773 0 
vn -0.514845 -0.857283 0 
vn -0.603492 -0.797369 0 
vn -0.674051 -0.738684 0 
vn -0.741615 -0.670826 0 
vn -0.803132 -0.595801 0 
vn -0.861333 -0.50804 0 
vn -0.906915 -0.421313 0 
vn -0.946267 -0.323385 0 
vn -0.974342 -0.225071 0 
vn -0.991848 -0.127424 0 
vn -0.999512 -0.0312503 0 
vn -0.998034 0.0626755 0 
vn -0.986422 0.164231 0 
vn -0.968057 0.250731 0 
vn -0.942509 0.33418 0 
vn -0.903631 0.428312 0 
vn -0.862874 0.50542 0 
vn -0.819843 0.572589 0 
vn 0.922399 -0.386239 0 
vn 0.594843 -0.803842 0 
usemtl 0.615686_0.811765_0.929412_0.000000_0.000000
o mesh0
f 1//1 2//2 3//2 
f 4//3 5//3 3//2 
f 6//4 7//4 5//3 
f 8//5 9//5 7//4 
f 10//6 11//6 9//5 
f 12//7 13//7 11//6 
f 14//8 15//8 13//7 
f 16//9 17//9 15//8 
f 18//10 19//10 17//9 
f 20//11 21//11 19//10 
f 22//12 23//12 21//11 
f 24//13 25//13 23//12 
f 26//14 27//14 25//13 
f 28//15 29//15 27//14 
f 30//16 31//16 29//15 
f 32//17 33//17 31//16 
f 34//18 35//18 33//17 
f 36//19 37//19 35//18 
f 38//20 39//20 37//19 
f 40//21 41//21 39//20 
f 42//22 43//22 41//21 
f 44//23 45//23 43//22 
f 46//24 47//24 45//23 
f 48//25 49//25 47//24 
f 50//26 51//26 49//25 
f 52//27 53//27 51//26 
f 54//28 55//28 53//27 
f 56//29 57//29 55//28 
f 58//30 59//30 57//29 
f 60//31 61//31 59//30 
f 62//32 63//32 61//31 
f 64//33 65//33 63//32 
f 66//34 67//34 65//33 
f 65//33 64//33 66//34 
f 63//32 62//32 64//33 
f 61//31 60//31 62//32 
f 59//30 58//30 60//31 
f 57//29 56//29 58//30 
f 55//28 54//28 56//29 
f 53//27 52//27 54//28 
f 51//26 50//26 52//27 
f 49//25 48//25 50//26 
f 47//24 46//24 48//25 
f 45//23 44//23 46//24 
f 43//22 42//22 44//23 
f 41//21 40//21 42//22 
f 39//20 38//20 40//21 
f 37//19 36//19 38//20 
f 35//18 34//18 36//19 
f 33//17 32//17 34//18 
f 31//16 30//16 32//17 
f 29//15 28//15 30//16 
f 27//14 26//14 28//15 
f 25//13 24//13 26//14 
f 23//12 22//12 24//13 
f 21//11 20//11 22//12 
f 19//10 18//10 20//11 
f 17//9 16//9 18//10 
f 15//8 14//8 16//9 
f 13//7 12//7 14//8 
f 11//6 10//6 12//7 
f 9//5 8//5 10//6 
f 7//4 6//4 8//5 
f 5//3 4//3 6//4 
f 3//2 2//2 4//3 
f 3//2 68//35 1//1 
o mesh1
f 66//36 69//37 70//37 
f 71//38 72//38 70//37 
f 73//39 74//39 72//38 
f 75//40 76//40 74//39 
f 77//41 78//41 76//40 
f 79//42 80//42 78//41 
f 81//43 82//43 80//42 
f 83//44 84//44 82//43 
f 85//45 84//44 83//44 
f 86//46 87//46 85//45 
f 88//47 89//47 87//46 
f 90//48 91//48 89//47 
f 92//49 93//49 91//48 
f 94//50 95//50 93//49 
f 96//51 97//51 95//50 
f 98//52 99//52 97//51 
f 100//53 101//53 99//52 
f 102//54 103//54 101//53 
f 104//55 105//55 103//54 
f 106//56 107//56 105//55 
f 108//57 109//57 107//56 
f 110//58 111//58 109//57 
f 112//59 113//59 111//58 
f 114//60 115//60 113//59 
f 116//61 117//61 115//60 
f 118//62 119//62 117//61 
f 120//63 121//63 119//62 
f 122//64 123//64 121//63 
f 124//65 125//65 123//64 
f 126//66 127//66 125//65 
f 128//67 129//67 127//66 
f 130//68 131//68 129//67 
f 132//69 133//69 131//68 
f 134//70 135//70 133//69 
f 136//71 137//71 135//70 
f 138//72 139//72 137//71 
f 140//73 141//73 139//72 
f 142//74 143//74 141//73 
f 144//75 145//75 143//74 
f 146//76 147//76 145//75 
f 148//77 147//76 146//76 
f 149//78 150//78 148//77 
f 151//79 150//78 149//78 
f 152//80 153//80 151//79 
f 154//81 153//80 152//80 
f 155//82 156//82 154//81 
f 157//83 156//82 155//82 
f 158//84 159//84 157//83 
f 160//85 159//84 158//84 
f 161//86 162//86 160//85 
f 163//87 164//87 162//86 
f 165//88 166//88 164//87 
f 167//89 168//89 166//88 
f 169//90 170//90 168//89 
f 171//91 172//91 170//90 
f 173//92 174//92 172//91 
f 175//93 176//93 174//92 
f 177//94 178//94 176//93 
f 179//95 180//95 178//94 
f 181//96 182//96 180//95 
f 1//97 68//97 182//96 
f 182//96 181//96 1//97 
f 180//95 179//95 181//96 
f 178//94 177//94 179//95 
f 176//93 175//93 177//94 
f 174//92 173//92 175//93 
f 172//91 171//91 173//92 
f 170//90 169//90 171//91 
f 168//89 167//89 169//90 
f 166//88 165//88 167//89 
f 164//87 163//87 165//88 
f 162//86 161//86 163//87 
f 160//85 183//98 161//86 
f 158//84 183//98 160//85 
f 157//83 184//99 158//84 
f 155//82 184//99 157//83 
f 154//81 185//100 155//82 
f 152//80 185//100 154//81 
f 151//79 186//101 152//80 
f 149//78 186//101 151//79 
f 148//77 187//102 149//78 
f 146//76 187//102 148//77 
f 145//75 144//75 146//76 
f 143//74 142//74 144//75 
f 141//73 140//73 142//74 
f 139//72 138//72 140//73 
f 137//71 136//71 138//72 
f 135//70 134//70 136//71 
f 133//69 132//69 134//70 
f 131//68 130//68 132//69 
f 129//67 128//67 130//68 
f 127//66 126//66 128//67 
f 125//65 124//65 126//66 
f 123//64 122//64 124//65 
f 121//63 120//63 122//64 
f 119//62 118//62 120//63 
f 117//61 116//61 118//62 
f 115//60 114//60 116//61 
f 113//59 112//59 114//60 
f 111//58 110//58 112//59 
f 109//57 108//57 110//58 
f 107//56 106//56 108//57 
f 105//55 104//55 106//56 
f 103//54 102//54 104//55 
f 101//53 100//53 102//54 
f 99//52 98//52 100//53 
f 97//51 96//51 98//52 
f 95//50 94//50 96//51 
f 93//49 92//49 94//50 
f 91//48 90//48 92//49 
f 89//47 88//47 90//48 
f 87//46 86//46 88//47 
f 85//45 188//103 86//46 
f 83//44 188//103 85//45 
f 82//43 81//43 83//44 
f 80//42 79//42 81//43 
f 78//41 77//41 79//42 
f 76//40 75//40 77//41 
f 74//39 73//39 75//40 
f 72//38 71//38 73//39 
f 70//37 69//37 71//38 
f 70//37 67//104 66//36 
o mesh2
f 114//105 112//105 189//105 
f 116//105 114//105 190//105 
f 190//105 191//105 116//105 
f 112//105 192//105 189//105 
f 191//105 193//105 118//105 
f 118//105 116//105 191//105 
f 193//105 194//105 120//105 
f 195//105 106//105 104//105 
f 106//105 195//105 196//105 
f 120//105 118//105 193//105 
f 110//105 197//105 192//105 
f 108//105 196//105 197//105 
f 196//105 108//105 106//105 
f 192//105 112//105 110//105 
f 194//105 198//105 122//105 
f 104//105 199//105 195//105 
f 122//105 120//105 194//105 
f 198//105 200//105 124//105 
f 201//105 199//105 102//105 
f 197//105 110//105 108//105 
f 124//105 122//105 198//105 
f 104//105 102//105 199//105 
f 202//105 96//105 94//105 
f 203//105 98//105 96//105 
f 102//105 100//105 201//105 
f 200//105 204//105 126//105 
f 177//105 175//105 205//105 
f 165//105 206//105 207//105 
f 165//105 163//105 208//105 
f 209//105 210//105 54//105 
f 210//105 211//105 56//105 
f 96//105 202//105 203//105 
f 203//105 201//105 100//105 
f 126//105 124//105 200//105 
f 204//105 212//105 128//105 
f 213//105 214//105 136//105 
f 214//105 215//105 138//105 
f 140//105 138//105 215//105 
f 216//105 142//105 140//105 
f 175//105 217//105 205//105 
f 173//105 218//105 217//105 
f 171//105 219//105 218//105 
f 169//105 220//105 219//105 
f 221//105 208//105 163//105 
f 208//105 206//105 165//105 
f 56//105 54//105 210//105 
f 211//105 222//105 58//105 
f 100//105 98//105 203//105 
f 128//105 126//105 204//105 
f 212//105 223//105 130//105 
f 223//105 224//105 132//105 
f 138//105 136//105 214//105 
f 140//105 225//105 216//105 
f 217//105 175//105 173//105 
f 219//105 171//105 169//105 
f 226//105 221//105 161//105 
f 207//105 167//105 165//105 
f 227//105 209//105 52//105 
f 58//105 56//105 211//105 
f 189//105 190//105 114//105 
f 132//105 130//105 223//105 
f 215//105 225//105 140//105 
f 228//105 144//105 142//105 
f 218//105 173//105 171//105 
f 167//105 207//105 220//105 
f 229//105 226//105 183//105 
f 163//105 161//105 221//105 
f 54//105 52//105 209//105 
f 222//105 230//105 60//105 
f 231//105 81//105 79//105 
f 130//105 128//105 212//105 
f 224//105 213//105 134//105 
f 142//105 216//105 228//105 
f 232//105 146//105 144//105 
f 220//105 169//105 167//105 
f 161//105 183//105 226//105 
f 233//105 227//105 50//105 
f 60//105 58//105 222//105 
f 234//105 235//105 77//105 
f 79//105 235//105 231//105 
f 134//105 132//105 224//105 
f 144//105 228//105 232//105 
f 236//105 229//105 158//105 
f 183//105 158//105 229//105 
f 237//105 238//105 24//105 
f 52//105 50//105 227//105 
f 230//105 239//105 62//105 
f 240//105 12//105 10//105 
f 241//105 242//105 69//105 
f 242//105 243//105 71//105 
f 244//105 234//105 75//105 
f 79//105 77//105 235//105 
f 136//105 134//105 213//105 
f 245//105 187//105 146//105 
f 246//105 186//105 149//105 
f 247//105 236//105 184//105 
f 205//105 248//105 177//105 
f 22//105 249//105 237//105 
f 20//105 250//105 249//105 
f 62//105 60//105 230//105 
f 239//105 251//105 64//105 
f 12//105 240//105 252//105 
f 10//105 253//105 240//105 
f 71//105 69//105 242//105 
f 243//105 244//105 73//105 
f 77//105 75//105 234//105 
f 254//105 83//105 81//105 
f 255//105 94//105 92//105 
f 146//105 232//105 245//105 
f 256//105 149//105 187//105 
f 149//105 256//105 246//105 
f 257//105 247//105 155//105 
f 158//105 184//105 236//105 
f 249//105 22//105 20//105 
f 238//105 258//105 26//105 
f 258//105 259//105 28//105 
f 259//105 260//105 30//105 
f 261//105 262//105 42//105 
f 262//105 263//105 44//105 
f 264//105 233//105 48//105 
f 64//105 62//105 239//105 
f 265//105 266//105 2//105 
f 1//105 267//105 268//105 
f 269//105 253//105 8//105 
f 10//105 8//105 253//105 
f 73//105 71//105 243//105 
f 81//105 231//105 254//105 
f 270//105 92//105 90//105 
f 94//105 255//105 202//105 
f 246//105 271//105 186//105 
f 271//105 272//105 152//105 
f 179//105 177//105 248//105 
f 184//105 155//105 247//105 
f 26//105 24//105 238//105 
f 30//105 28//105 259//105 
f 32//105 30//105 260//105 
f 273//105 274//105 34//105 
f 275//105 261//105 40//105 
f 44//105 42//105 262//105 
f 50//105 48//105 233//105 
f 251//105 241//105 66//105 
f 268//105 265//105 1//105 
f 266//105 276//105 4//105 
f 276//105 269//105 6//105 
f 252//105 14//105 12//105 
f 75//105 73//105 244//105 
f 277//105 188//105 83//105 
f 92//105 270//105 255//105 
f 152//105 186//105 271//105 
f 272//105 257//105 185//105 
f 155//105 185//105 257//105 
f 28//105 26//105 258//105 
f 18//105 278//105 250//105 
f 34//105 32//105 273//105 
f 274//105 279//105 36//105 
f 279//105 275//105 38//105 
f 42//105 40//105 261//105 
f 263//105 264//105 46//105 
f 66//105 64//105 251//105 
f 4//105 2//105 266//105 
f 8//105 6//105 269//105 
f 83//105 254//105 277//105 
f 280//105 86//105 188//105 
f 281//105 90//105 88//105 
f 187//105 245//105 256//105 
f 181//105 179//105 282//105 
f 248//105 282//105 179//105 
f 250//105 20//105 18//105 
f 36//105 34//105 274//105 
f 40//105 38//105 275//105 
f 48//105 46//105 264//105 
f 14//105 252//105 283//105 
f 6//105 4//105 276//105 
f 1//105 284//105 285//105 
f 188//105 277//105 280//105 
f 286//105 88//105 86//105 
f 90//105 281//105 270//105 
f 185//105 152//105 272//105 
f 260//105 273//105 32//105 
f 46//105 44//105 263//105 
f 16//105 283//105 278//105 
f 2//105 1//105 265//105 
f 1//105 287//105 284//105 
f 1//105 181//105 288//105 
f 86//105 280//105 286//105 
f 282//105 288//105 181//105 
f 38//105 36//105 279//105 
f 283//105 16//105 14//105 
f 288//105 287//105 1//105 
f 88//105 286//105 281//105 
f 278//105 18//105 16//105 
f 69//105 66//105 241//105 
f 285//105 267//105 1//105 
f 24//105 22//105 237//105 
o mesh3
f 117//106 289//106 290//106 
f 115//106 290//106 291//106 
f 291//106 113//106 115//106 
f 289//106 117//106 119//106 
f 290//106 115//106 117//106 
f 107//106 109//106 292//106 
f 293//106 294//106 105//106 
f 295//106 119//106 121//106 
f 291//106 296//106 113//106 
f 105//106 107//106 293//106 
f 109//106 111//106 297//106 
f 111//106 113//106 296//106 
f 119//106 295//106 289//106 
f 297//106 292//106 109//106 
f 298//106 121//106 123//106 
f 121//106 298//106 295//106 
f 294//106 103//106 105//106 
f 299//106 101//106 103//106 
f 300//106 123//106 125//106 
f 296//106 297//106 111//106 
f 103//106 294//106 299//106 
f 123//106 300//106 298//106 
f 301//106 55//106 57//106 
f 302//106 53//106 55//106 
f 166//106 303//106 304//106 
f 166//106 168//106 305//106 
f 178//106 306//106 307//106 
f 308//106 125//106 127//106 
f 125//106 308//106 300//106 
f 309//106 310//106 97//106 
f 310//106 311//106 95//106 
f 312//106 57//106 59//106 
f 55//106 301//106 302//106 
f 305//106 303//106 166//106 
f 313//106 162//106 164//106 
f 170//106 172//106 314//106 
f 172//106 174//106 315//106 
f 174//106 176//106 316//106 
f 307//106 176//106 178//106 
f 317//106 318//106 141//106 
f 141//106 318//106 319//106 
f 320//106 137//106 139//106 
f 321//106 135//106 137//106 
f 322//106 127//106 129//106 
f 292//106 293//106 107//106 
f 309//106 99//106 101//106 
f 95//106 97//106 310//106 
f 57//106 312//106 301//106 
f 323//106 51//106 53//106 
f 164//106 304//106 313//106 
f 324//106 160//106 162//106 
f 315//106 314//106 172//106 
f 307//106 316//106 176//106 
f 319//106 139//106 141//106 
f 137//106 320//106 321//106 
f 325//106 131//106 133//106 
f 326//106 129//106 131//106 
f 127//106 322//106 308//106 
f 97//106 99//106 309//106 
f 327//106 59//106 61//106 
f 53//106 302//106 323//106 
f 162//106 313//106 324//106 
f 328//106 159//106 160//106 
f 168//106 170//106 329//106 
f 316//106 315//106 174//106 
f 330//106 317//106 143//106 
f 139//106 319//106 320//106 
f 131//106 325//106 326//106 
f 101//106 299//106 309//106 
f 59//106 327//106 312//106 
f 331//106 49//106 51//106 
f 160//106 324//106 328//106 
f 314//106 329//106 170//106 
f 332//106 330//106 145//106 
f 141//106 143//106 317//106 
f 333//106 133//106 135//106 
f 129//106 326//106 322//106 
f 334//106 335//106 11//106 
f 336//106 61//106 63//106 
f 51//106 323//106 331//106 
f 337//106 23//106 25//106 
f 329//106 305//106 168//106 
f 338//106 157//106 159//106 
f 143//106 145//106 330//106 
f 133//106 333//106 325//106 
f 335//106 9//106 11//106 
f 13//106 15//106 339//106 
f 340//106 63//106 65//106 
f 61//106 336//106 327//106 
f 21//106 23//106 341//106 
f 25//106 342//106 337//106 
f 159//106 328//106 338//106 
f 343//106 156//106 157//106 
f 344//106 345//106 150//106 
f 346//106 332//106 147//106 
f 135//106 321//106 333//106 
f 339//106 334//106 13//106 
f 347//106 7//106 9//106 
f 68//106 348//106 349//106 
f 348//106 68//106 3//106 
f 63//106 340//106 336//106 
f 350//106 47//106 49//106 
f 351//106 43//106 45//106 
f 352//106 41//106 43//106 
f 353//106 29//106 31//106 
f 354//106 27//106 29//106 
f 342//106 25//106 27//106 
f 337//106 341//106 23//106 
f 157//106 338//106 343//106 
f 355//106 154//106 156//106 
f 151//106 356//106 344//106 
f 345//106 346//106 148//106 
f 145//106 147//106 332//106 
f 311//106 357//106 93//106 
f 9//106 335//106 347//106 
f 358//106 5//106 7//106 
f 359//106 3//106 5//106 
f 3//106 359//106 348//106 
f 360//106 65//106 67//106 
f 49//106 331//106 350//106 
f 43//106 351//106 352//106 
f 361//106 39//106 41//106 
f 362//106 33//106 35//106 
f 33//106 362//106 363//106 
f 29//106 353//106 354//106 
f 341//106 364//106 21//106 
f 156//106 343//106 355//106 
f 180//106 365//106 306//106 
f 356//106 151//106 153//106 
f 148//106 150//106 345//106 
f 93//106 95//106 311//106 
f 357//106 366//106 91//106 
f 367//106 368//106 80//106 
f 7//106 347//106 358//106 
f 349//106 369//106 68//106 
f 65//106 360//106 340//106 
f 370//106 45//106 47//106 
f 41//106 352//106 361//106 
f 371//106 37//106 39//106 
f 372//106 35//106 37//106 
f 363//106 31//106 33//106 
f 19//106 21//106 364//106 
f 27//106 354//106 342//106 
f 306//106 178//106 180//106 
f 373//106 153//106 154//106 
f 150//106 151//106 344//106 
f 91//106 93//106 357//106 
f 374//106 375//106 84//106 
f 375//106 367//106 82//106 
f 368//106 78//106 80//106 
f 376//106 76//106 78//106 
f 377//106 70//106 72//106 
f 378//106 67//106 70//106 
f 5//106 358//106 359//106 
f 15//106 17//106 379//106 
f 47//106 350//106 370//106 
f 39//106 361//106 371//106 
f 35//106 372//106 362//106 
f 31//106 363//106 353//106 
f 154//106 355//106 373//106 
f 182//106 380//106 365//106 
f 147//106 148//106 346//106 
f 366//106 381//106 89//106 
f 382//106 374//106 85//106 
f 82//106 84//106 375//106 
f 78//106 368//106 376//106 
f 383//106 74//106 76//106 
f 384//106 72//106 74//106 
f 70//106 377//106 378//106 
f 379//106 339//106 15//106 
f 17//106 19//106 385//106 
f 45//106 370//106 351//106 
f 364//106 385//106 19//106 
f 365//106 180//106 182//106 
f 89//106 91//106 366//106 
f 381//106 382//106 87//106 
f 84//106 85//106 374//106 
f 68//106 369//106 386//106 
f 76//106 376//106 383//106 
f 72//106 384//106 377//106 
f 385//106 379//106 17//106 
f 37//106 371//106 372//106 
f 153//106 373//106 356//106 
f 85//106 87//106 382//106 
f 68//106 387//106 380//106 
f 386//106 388//106 68//106 
f 74//106 383//106 384//106 
f 67//106 378//106 360//106 
f 87//106 89//106 381//106 
f 388//106 387//106 68//106 
f 11//106 13//106 334//106 
f 380//106 182//106 68//106 
f 304//106 164//106 166//106 
f 80//106 82//106 367//106 
o mesh4
f 251//107 360//107 378//108 
f 239//109 340//109 360//107 
f 230//110 336//110 340//109 
f 222//111 327//111 336//110 
f 211//112 312//112 327//111 
f 210//113 301//113 312//112 
f 209//114 302//114 301//113 
f 227//115 323//115 302//114 
f 233//116 331//116 323//115 
f 264//117 350//117 331//116 
f 263//118 370//118 350//117 
f 262//119 351//119 370//118 
f 261//120 352//120 351//119 
f 275//121 361//121 352//120 
f 279//122 371//122 361//121 
f 274//123 372//123 371//122 
f 273//124 362//124 372//123 
f 260//125 363//125 362//124 
f 259//126 353//126 363//125 
f 258//127 354//127 353//126 
f 238//128 342//128 354//127 
f 237//129 337//129 342//128 
f 249//130 341//130 337//129 
f 250//131 364//131 341//130 
f 278//132 385//132 364//131 
f 283//133 379//133 385//132 
f 252//134 339//134 379//133 
f 240//135 334//135 339//134 
f 253//136 335//136 334//135 
f 269//137 347//137 335//136 
f 276//138 358//138 347//137 
f 266//139 359//139 358//138 
f 265//140 348//140 359//139 
f 268//141 349//141 348//140 
f 267//142 369//142 349//141 
f 285//143 386//143 369//142 
f 369//142 267//142 285//143 
f 349//141 268//141 267//142 
f 348//140 265//140 268//141 
f 359//139 266//139 265//140 
f 358//138 276//138 266//139 
f 347//137 269//137 276//138 
f 335//136 253//136 269//137 
f 334//135 240//135 253//136 
f 339//134 252//134 240//135 
f 379//133 283//133 252//134 
f 385//132 278//132 283//133 
f 364//131 250//131 278//132 
f 341//130 249//130 250//131 
f 337//129 237//129 249//130 
f 342//128 238//128 237//129 
f 354//127 258//127 238//128 
f 353//126 259//126 258//127 
f 363//125 260//125 259//126 
f 362//124 273//124 260//125 
f 372//123 274//123 273//124 
f 371//122 279//122 274//123 
f 361//121 275//121 279//122 
f 352//120 261//120 275//121 
f 351//119 262//119 261//120 
f 370//118 263//118 262//119 
f 350//117 264//117 263//118 
f 331//116 233//116 264//117 
f 323//115 227//115 233//116 
f 302//114 209//114 227//115 
f 301//113 210//113 209//114 
f 312//112 211//112 210//113 
f 327//111 222//111 211//112 
f 336//110 230//110 222//111 
f 340//109 239//109 230//110 
f 360//107 251//107 239//109 
f 378//108 241//144 251//107 
o mesh5
f 284//145 388//145 386//146 
f 287//147 387//147 388//145 
f 288//148 380//148 387//147 
f 282//149 365//149 380//148 
f 248//150 306//150 365//149 
f 205//151 307//151 306//150 
f 217//152 316//152 307//151 
f 218//153 315//153 316//152 
f 219//154 314//154 315//153 
f 220//155 329//155 314//154 
f 207//156 305//156 329//155 
f 206//157 303//157 305//156 
f 208//158 304//158 303//157 
f 221//159 313//159 304//158 
f 226//160 324//160 313//159 
f 229//161 328//161 324//160 
f 236//162 338//162 328//161 
f 247//163 343//163 338//162 
f 355//164 343//163 247//163 
f 272//165 373//165 355//164 
f 271//166 356//166 373//165 
f 246//167 344//167 356//166 
f 256//168 345//168 344//167 
f 245//169 346//169 345//168 
f 232//170 332//170 346//169 
f 228//171 330//171 332//170 
f 216//172 317//172 330//171 
f 225//173 318//173 317//172 
f 215//174 319//174 318//173 
f 214//175 320//175 319//174 
f 213//176 321//176 320//175 
f 224//177 333//177 321//176 
f 223//178 325//178 333//177 
f 212//179 326//179 325//178 
f 204//180 322//180 326//179 
f 200//181 308//181 322//180 
f 198//182 300//182 308//181 
f 194//183 298//183 300//182 
f 193//184 295//184 298//183 
f 191//185 289//185 295//184 
f 190//186 290//186 289//185 
f 189//187 291//187 290//186 
f 192//188 296//188 291//187 
f 197//189 297//189 296//188 
f 196//190 292//190 297//189 
f 195//191 293//191 292//190 
f 199//192 294//192 293//191 
f 201//193 299//193 294//192 
f 203//194 309//194 299//193 
f 202//195 310//195 309//194 
f 255//196 311//196 310//195 
f 270//197 357//197 311//196 
f 281//198 366//198 357//197 
f 286//199 381//199 366//198 
f 280//200 382//200 381//199 
f 277//201 374//201 382//200 
f 254//202 375//202 374//201 
f 231//203 367//203 375//202 
f 235//204 368//204 367//203 
f 234//205 376//205 368//204 
f 244//206 383//206 376//205 
f 243//207 384//207 383//206 
f 242//208 377//208 384//207 
f 241//209 378//209 377//208 
f 377//208 242//208 241//209 
f 384//207 243//207 242//208 
f 383//206 244//206 243//207 
f 376//205 234//205 244//206 
f 368//204 235//204 234//205 
f 367//203 231//203 235//204 
f 375//202 254//202 231//203 
f 374//201 277//201 254//202 
f 382//200 280//200 277//201 
f 381//199 286//199 280//200 
f 366//198 281//198 286//199 
f 357//197 270//197 281//198 
f 311//196 255//196 270//197 
f 310//195 202//195 255//196 
f 309//194 203//194 202//195 
f 299//193 201//193 203//194 
f 294//192 199//192 201//193 
f 293//191 195//191 199//192 
f 292//190 196//190 195//191 
f 297//189 197//189 196//190 
f 296//188 192//188 197//189 
f 291//187 189//187 192//188 
f 290//186 190//186 189//187 
f 289//185 191//185 190//186 
f 295//184 193//184 191//185 
f 298//183 194//183 193//184 
f 300//182 198//182 194//183 
f 308//181 200//181 198//182 
f 322//180 204//180 200//181 
f 326//179 212//179 204//180 
f 325//178 223//178 212//179 
f 333//177 224//177 223//178 
f 321//176 213//176 224//177 
f 320//175 214//175 213//176 
f 319//174 215//174 214//175 
f 318//173 225//173 215//174 
f 317//172 216//172 225//173 
f 330//171 228//171 216//172 
f 332//170 232//170 228//171 
f 346//169 245//169 232//170 
f 345//168 256//168 245//169 
f 344//167 246//167 256//168 
f 356//166 271//166 246//167 
f 373//165 272//165 271//166 
f 355//164 257//210 272//165 
f 247//163 257//210 355//164 
f 338//162 236//162 247//163 
f 328//161 229//161 236//162 
f 324//160 226//160 229//161 
f 313//159 221//159 226//160 
f 304//158 208//158 221//159 
f 303//157 206//157 208//158 
f 305//156 207//156 206//157 
f 329//155 220//155 207//156 
f 314//154 219//154 220//155 
f 315//153 218//153 219//154 
f 316//152 217//152 218//153 
f 307//151 205//151 217//152 
f 306//150 248//150 205//151 
f 365//149 282//149 248//150 
f 380//148 288//148 282//149 
f 387//147 287//147 288//148 
f 388//145 284//145 287//147 
f 386//146 285//211 284//145 
